<?xml version="1.0" standalone="no"?><!DOCTYPE svg PUBLIC "-//W3C//DTD SVG 1.1//EN" "http://www.w3.org/Graphics/SVG/1.1/DTD/svg11.dtd"><svg t="1650383492428" class="icon" viewBox="0 0 1024 1024" version="1.1" xmlns="http://www.w3.org/2000/svg" p-id="2601" xmlns:xlink="http://www.w3.org/1999/xlink" width="200" height="200"><defs><style type="text/css">@font-face { font-family: feedback-iconfont; src: url("//at.alicdn.com/t/font_1031158_u69w8yhxdu.woff2?t=1630033759944") format("woff2"), url("//at.alicdn.com/t/font_1031158_u69w8yhxdu.woff?t=1630033759944") format("woff"), url("//at.alicdn.com/t/font_1031158_u69w8yhxdu.ttf?t=1630033759944") format("truetype"); }
</style></defs><path d="M872.838095 677.790476V633.904762h107.276191v-97.52381h-107.276191v-39.009523h107.276191v-97.52381h-204.8v277.942857c-63.390476 19.504762-107.27619 78.019048-107.276191 146.285714 0 82.895238 68.266667 156.038095 156.038095 156.038096s156.038095-68.266667 156.038096-156.038096c0-68.266667-48.761905-121.904762-107.276191-146.285714z m-48.761905 204.8c-29.257143 0-58.514286-24.380952-58.514285-58.514286s24.380952-58.514286 58.514285-58.514285 58.514286 24.380952 58.514286 58.514285-29.257143 58.514286-58.514286 58.514286zM516.87619 555.885714c141.409524 0 258.438095-117.028571 258.438096-258.438095S658.285714 39.009524 516.87619 39.009524 258.438095 160.914286 258.438095 302.32381c0 78.019048 34.133333 146.285714 87.771429 190.171428-175.542857 68.266667-302.32381 238.933333-302.32381 438.857143v48.761905H585.142857v-97.52381H146.285714c24.380952-185.295238 180.419048-326.704762 370.590476-326.704762zM355.961905 302.32381c0-87.771429 73.142857-160.914286 160.914285-160.914286s160.914286 73.142857 160.914286 160.914286-73.142857 160.914286-160.914286 160.914285S355.961905 390.095238 355.961905 302.32381z" p-id="2602"></path></svg>