<?xml version="1.0" standalone="no"?><!DOCTYPE svg PUBLIC "-//W3C//DTD SVG 1.1//EN" "http://www.w3.org/Graphics/SVG/1.1/DTD/svg11.dtd"><svg t="1648740339737" class="icon" viewBox="0 0 1024 1024" version="1.1" xmlns="http://www.w3.org/2000/svg" p-id="16890" xmlns:xlink="http://www.w3.org/1999/xlink" width="200" height="200"><defs><style type="text/css"></style></defs><path d="M913.58168 384.689453c-25.367761 0-45.933145 20.565385-45.933145 45.933145l0 408.214239L156.047544 838.836837 156.047544 189.407837l375.434671 0c25.368784 0 45.933145-20.565385 45.933145-45.933145 0-25.368784-20.564361-45.934169-45.933145-45.934169L110.079606 97.540524c-25.367761 0-45.933145 20.565385-45.933145 45.934169 0 0.450255 0.021489 0.895393 0.033769 1.343601l0 738.607064c-0.013303 0.448208-0.033769 0.893346-0.033769 1.343601 0 25.367761 20.565385 45.933145 45.933145 45.933145l803.095821 0c0.067538 0 0.135076-0.005117 0.202615-0.005117 0.068562 0 0.1361 0.005117 0.203638 0.005117 25.368784 0 45.934169-20.564361 45.934169-45.933145L959.515848 430.622598C959.515848 405.254837 938.950464 384.689453 913.58168 384.689453z" p-id="16891"></path><path d="M531.852652 611.321076l412.139641-414.500409c19.783579-19.783579 19.784602-51.861158 0-71.64576l-46.322002-46.322002c-19.785625-19.784602-51.863205-19.784602-71.647807 0L413.88489 493.351268 531.852652 611.321076z" p-id="16892"></path><path d="M373.206422 656.067186 508.80268 631.659287 397.613298 520.471952Z" p-id="16893"></path></svg>