<?xml version="1.0" standalone="no"?><!DOCTYPE svg PUBLIC "-//W3C//DTD SVG 1.1//EN" "http://www.w3.org/Graphics/SVG/1.1/DTD/svg11.dtd"><svg t="1651141705463" class="icon" viewBox="0 0 1024 1024" version="1.1" xmlns="http://www.w3.org/2000/svg" p-id="2110" xmlns:xlink="http://www.w3.org/1999/xlink" width="200" height="200"><defs><style type="text/css">@font-face { font-family: feedback-iconfont; src: url("//at.alicdn.com/t/font_1031158_u69w8yhxdu.woff2?t=1630033759944") format("woff2"), url("//at.alicdn.com/t/font_1031158_u69w8yhxdu.woff?t=1630033759944") format("woff"), url("//at.alicdn.com/t/font_1031158_u69w8yhxdu.ttf?t=1630033759944") format("truetype"); }
</style></defs><path d="M512 978.488889c-250.311111 0-455.111111-204.8-455.111111-460.8S261.688889 56.888889 512 56.888889s455.111111 204.8 455.111111 460.8-204.8 460.8-455.111111 460.8zM512 113.777778C295.822222 113.777778 113.777778 295.822222 113.777778 517.688889c0 221.866667 176.355556 403.911111 398.222222 403.911111 216.177778 0 398.222222-182.044444 398.222222-403.911111C910.222222 295.822222 728.177778 113.777778 512 113.777778z m210.488889 472.177778H460.8c-17.066667 0-28.444444-11.377778-28.444444-28.444445v-284.444444c0-17.066667 11.377778-28.444444 28.444444-28.444445s28.444444 11.377778 28.444444 28.444445v256h233.244445c17.066667 0 28.444444 11.377778 28.444444 28.444444s-11.377778 28.444444-28.444444 28.444445z" fill="#999999" p-id="2111"></path></svg>