<?xml version="1.0" standalone="no"?><!DOCTYPE svg PUBLIC "-//W3C//DTD SVG 1.1//EN" "http://www.w3.org/Graphics/SVG/1.1/DTD/svg11.dtd"><svg t="1651060744875" class="icon" viewBox="0 0 1052 1024" version="1.1" xmlns="http://www.w3.org/2000/svg" p-id="11457" xmlns:xlink="http://www.w3.org/1999/xlink" width="308.203125" height="300"><defs><style type="text/css">@font-face { font-family: feedback-iconfont; src: url("//at.alicdn.com/t/font_1031158_u69w8yhxdu.woff2?t=1630033759944") format("woff2"), url("//at.alicdn.com/t/font_1031158_u69w8yhxdu.woff?t=1630033759944") format("woff"), url("//at.alicdn.com/t/font_1031158_u69w8yhxdu.ttf?t=1630033759944") format("truetype"); }
</style></defs><path d="M995.555556 929.848889A37.262222 37.262222 0 0 1 958.293333 967.111111H94.151111A37.262222 37.262222 0 0 1 56.888889 929.848889V768H0v161.848889A94.435556 94.435556 0 0 0 94.151111 1024h864.142222A94.435556 94.435556 0 0 0 1052.444444 929.848889V768h-56.888888zM958.293333 0H94.151111A94.435556 94.435556 0 0 0 0 94.151111V256h56.888889V94.151111A37.262222 37.262222 0 0 1 94.151111 56.888889h864.142222A37.262222 37.262222 0 0 1 995.555556 94.151111V256h56.888888V94.151111A94.435556 94.435556 0 0 0 958.293333 0z" p-id="11458" fill="#515151"></path><path d="M119.751111 199.111111v288.995556H42.666667v47.786666h77.084444V824.888889h56.888889V535.893333h54.897778V824.888889h85.333333V535.893333h69.12V824.888889h28.444445V535.893333h83.342222V824.888889h56.888889V535.893333h54.897777V824.888889h85.333334V535.893333h69.12V824.888889h28.444444V535.893333h83.342222V824.888889h56.888889V535.893333h77.084445v-47.786666h-77.084445V199.111111h-56.888889v288.995556h-83.342222V199.111111h-28.444444v288.995556h-69.12V199.111111h-85.333334v288.995556H554.666667V199.111111h-56.888889v288.995556h-83.342222V199.111111h-28.444445v288.995556h-69.12V199.111111h-85.333333v288.995556H176.64V199.111111h-56.888889z" p-id="11459" fill="#515151"></path></svg>