<svg xmlns:xlink="http://www.w3.org/1999/xlink" xmlns="http://www.w3.org/2000/svg" version="1.1" viewBox="0 0 440 440" height="440px" width="440px">
    <title>完胜</title>
    <defs>
        <linearGradient id="linearGradient-1" y2="94.9598849%" x2="50%" y1="0.455533649%" x1="50%">
            <stop offset="0%" stop-color="#9ED7FC"></stop>
            <stop offset="100%" stop-color="#DDEBF8"></stop>
        </linearGradient>
        <linearGradient id="linearGradient-2" y2="94.9598849%" x2="50%" y1="0.455533649%" x1="50%">
            <stop offset="0%" stop-color="#9ED7FC"></stop>
            <stop offset="100%" stop-color="#DDEBF8"></stop>
        </linearGradient>
    </defs>
    <g fill-rule="evenodd" fill="none" stroke-width="1" stroke="none" id="完胜">
        <g transform="translate(15.000000, 61.848804)">
            <g fill-rule="nonzero" transform="translate(198.034161, 131.773411)" id="衣服">
                <path fill="url(#linearGradient-1)" id="形状-708" d="M130.431221,21.411041 C135.568158,20.7820283 154.099724,27.0288937 154.099724,27.0288937 C157.139952,24.1983366 162.407129,0 162.407129,0 L190.800515,13.420129 C197.680501,36.6771015 184.279655,54.4644862 184.279655,54.4644862 C177.409433,73.8765755 150.45289,89.3093312 150.45289,89.3093312 C151.186738,103.462117 147.866336,119.255577 147.866336,119.255577 C151.325905,120.408767 166.411965,142.247269 166.411965,142.247269 C177.891092,138.743306 186.607097,151.80292 186.607097,151.80292 C194.36492,175.600567 155.035764,182.296604 155.035764,182.296604 C149.898827,174.748451 139.25177,175.252015 139.25177,175.252015 C113.776756,176.929382 95.8256631,140.118426 95.8256631,140.118426 C90.2039455,140.094503 78.8794815,143.988206 78.8794815,143.988206 C68.9915145,142.547005 57.7078507,139.271021 57.7078507,139.271021 L57.9358458,148.744587 C58.7745294,157.970106 45.1759514,164.431528 45.1759514,164.431528 C41.8212171,160.447781 6.29012686,158.189756 6.29012686,158.189756 C-4.4030888,142.88378 2.04835448,133.980894 2.04835448,133.980894 C2.25802537,129.892311 13.5318992,115.158868 13.5318992,115.158868 C16.1833151,112.634448 27.2088619,110.917095 27.2088619,110.917095 L29.2572164,94.1434237 C26.4266593,90.1596767 16.6769627,77.3697521 16.6769627,77.3697521 L30.4022798,43.8224089 C91.5213458,61.644435 130.431221,21.411041 130.431221,21.411041 Z"></path>
                <path fill="#000000" id="形状-700" d="M159.401257,4.06262533 L159.278777,2.49079516 L191.594418,14.7484522 L191.746596,15.1929081 C191.818751,15.4036457 191.888834,15.61496 191.956857,15.8268442 C195.155851,25.7914302 193.765284,36.4076878 189.520725,46.6624399 C188.611955,48.8580062 187.638052,50.858854 186.66306,52.6269587 L186.264222,53.3366827 C186.135427,53.5614192 186.010954,53.7742154 185.891313,53.974765 L185.632483,54.4020016 L185.408,54.759 L185.166356,55.3937842 C182.800143,61.5026601 179.763992,66.6539154 176.207712,70.9257626 L175.778471,71.4341681 C172.506759,75.2551322 168.995514,78.1462697 165.477718,80.2349169 C164.24025,80.9696475 163.087926,81.5520413 162.049489,81.9982543 L161.652764,82.1645448 L161.308718,82.3010825 L160.895539,82.4524246 L160.752,82.5 L160.3359,82.6848432 C158.373298,83.590542 156.507718,84.8981434 154.759103,86.5129759 L154.357662,86.8910403 C153.061932,88.1351331 151.911208,89.4708194 150.921281,90.805789 C150.644711,91.1787587 150.397161,91.5297984 150.17955,91.8529899 L149.975,92.16 L149.996123,92.2161894 C153.868538,102.840823 152.564887,112.002291 147.983838,119.482764 L147.755907,119.8493 C146.773719,121.404984 145.720481,122.755436 144.664713,123.896776 L144.297042,124.286078 C144.238638,124.346584 144.181717,124.404899 144.126346,124.461018 L143.813268,124.771352 L143.540652,125.02879 L143.31175,125.233129 C143.277424,125.26275 143.245054,125.29015 143.214709,125.315325 C142.789659,125.667959 142.159222,125.609254 141.806588,125.184204 C141.453953,124.759154 141.512658,124.128716 141.937708,123.776082 L142.17331,123.566603 L142.264777,123.481577 C142.54407,123.219772 142.85747,122.905216 143.196532,122.538672 C144.172384,121.483725 145.150766,120.229254 146.064757,118.781586 C150.511536,111.738346 151.827619,103.096363 148.123839,92.9197206 L147.931176,92.4009418 L147.760879,91.9513574 L148.085295,91.406399 L148.349551,90.9932492 L148.519595,90.7373947 L148.894325,90.1947516 C149.026886,90.0073611 149.167068,89.8137042 149.314777,89.6145104 C150.367666,88.1946322 151.590307,86.7754709 152.972487,85.4483726 C154.997092,83.5044509 157.187856,81.9287323 159.534537,80.8519846 L160.005949,80.6433268 L160.365278,80.5188617 L160.609621,80.4272419 L160.908456,80.3082006 L161.259904,80.160714 C162.220384,79.7479986 163.295424,79.204665 164.456656,78.5151979 C167.792288,76.5347088 171.134471,73.7827754 174.259291,70.1333646 C177.849212,65.9407712 180.914173,60.8269469 183.291706,54.6963482 L183.61353,53.8492419 L183.862808,53.4610763 L184.174549,52.9487425 L184.530033,52.3403946 L184.91169,51.6611943 C185.852178,49.9556599 186.793757,48.021222 187.672769,45.8975497 C191.67708,36.2232304 193.033355,26.2557502 190.216494,16.9634379 L190.052582,16.4381856 L190.001,16.283 L161.454,5.454 C161.522126,9.62810131 160.957837,14.5069337 159.305948,19.2721726 L159.093764,19.8671761 C157.646253,23.8148067 155.54547,27.2107332 152.694283,29.8759731 C152.290824,30.2531195 151.658019,30.231789 151.280872,29.8283301 C150.903726,29.4248712 150.925056,28.7920656 151.328515,28.4149192 C153.933434,25.9798861 155.870064,22.8493147 157.216018,19.1786474 C159.000014,14.3133602 159.564198,9.23351632 159.443751,5.02084405 L159.420346,4.39177237 L159.401257,4.06262533 Z"></path>
                <path fill="#000000" id="形状-699" d="M146.959438,118.79119 C147.242617,118.31703 147.856562,118.162209 148.330722,118.445388 C149.964477,119.421102 151.86894,121.180382 154.019096,123.62557 L154.64009,124.342775 L155.274325,125.096802 C155.381127,125.225513 155.488475,125.355738 155.596367,125.487466 L156.250221,126.295777 C156.360277,126.433473 156.470871,126.57265 156.582001,126.713298 C157.840186,128.305689 159.150011,130.066791 160.498678,131.968639 C162.68429,135.050719 164.866526,138.35001 166.943602,141.648948 L167.84132,143.08569 L168.397055,143.986768 L169.646392,146.053087 C169.926986,146.528782 169.768826,147.141875 169.293131,147.422469 C168.817437,147.703063 168.204343,147.544903 167.923749,147.069208 L167.206743,145.875642 L166.421055,144.591651 L165.55604,143.200084 C165.455746,143.039969 165.354097,142.878102 165.251129,142.714562 C163.192178,139.444412 161.02945,136.174615 158.867247,133.125545 C157.537499,131.250378 156.247979,129.516575 155.012731,127.953215 L154.381703,127.163646 C154.277608,127.034929 154.174056,126.90766 154.071056,126.781852 L153.459752,126.044637 C151.041577,123.166743 148.951149,121.145448 147.30524,120.162474 C146.83108,119.879295 146.676259,119.26535 146.959438,118.79119 Z"></path>
                <path fill="#000000" id="形状-698" d="M166.523963,140.332981 C173.370622,139.191871 178.765253,141.178517 182.779224,145.17855 C183.905908,146.301322 184.83534,147.502885 185.581738,148.706348 C185.732561,148.949528 185.865828,149.175715 185.983,149.384676 L186.196316,149.779563 C186.324796,150.027417 186.426392,150.244373 186.504564,150.42988 C187.91221,154.530414 187.91221,158.449856 187.065321,161.874234 L186.948218,162.324216 L186.833706,162.723347 L186.725179,163.06789 L186.626036,163.354109 C186.610482,163.396744 186.595461,163.436793 186.581044,163.474179 L186.502342,163.665907 C184.69475,168.817545 179.164165,173.322443 171.078209,177.27542 C167.649234,178.951742 163.982102,180.414641 160.315776,181.657366 L159.771674,181.840137 L158.719061,182.184157 L157.71741,182.499356 C157.554949,182.549479 157.394787,182.598394 157.237011,182.6461 L156.49712,182.866125 L155.589038,183.124123 L154.884288,183.311315 L154.481693,182.943229 C152.454134,181.08946 149.777095,179.595954 146.60598,178.435352 C143.88342,177.438917 140.955507,176.741907 138.025953,176.29437 C137.170791,176.16373 136.367001,176.062629 135.629169,175.987218 L134.985953,175.926381 L134.327043,175.875815 L134.09776,175.862513 C122.721299,174.815879 113.209514,168.54787 105.467478,158.788348 C102.499696,155.047194 100.000917,151.043487 97.9535118,147.03949 C97.3261254,145.812545 96.7808065,144.661462 96.3162549,143.608192 L96.0187815,142.921337 L95.745614,142.264053 L95.5108631,141.66669 C95.3190467,141.148785 95.5833931,140.573443 96.1012975,140.381626 C96.6192018,140.18981 97.1945442,140.454156 97.3863606,140.972061 L97.5246577,141.327545 L97.8599689,142.140294 L97.9589165,142.37157 C98.446602,143.503653 99.0378627,144.767125 99.7342157,146.128944 C101.724999,150.022209 104.15503,153.915764 107.034339,157.545388 C114.465844,166.913459 123.521782,172.881077 134.235478,173.867782 L134.731465,173.89953 L135.377422,173.953406 C136.268955,174.035289 137.26069,174.15426 138.327982,174.317307 C141.379821,174.783525 144.4333,175.510426 147.293373,176.55719 C150.313639,177.662583 152.939552,179.063166 155.059982,180.800011 L155.412,181.096 L155.936931,180.94618 L156.658793,180.731507 L157.612468,180.437217 C157.775925,180.385786 157.94158,180.333166 158.109343,180.27936 L159.140513,179.942339 C159.316355,179.883808 159.494128,179.8241 159.673743,179.763219 C163.264863,178.545985 166.855176,177.113731 170.199817,175.478638 C177.850326,171.738537 183.030941,167.518704 184.641397,162.936726 L184.710022,162.762259 L184.781371,162.563125 L184.920352,162.135073 C184.989569,161.907623 185.057981,161.660272 185.123815,161.394076 C185.884402,158.318656 185.884402,154.783133 184.639597,151.148485 L184.560385,150.97816 L184.467018,150.791071 C184.309344,150.482331 184.114752,150.135615 183.882092,149.760484 C183.213344,148.682221 182.377818,147.602059 181.367472,146.595221 C177.789301,143.029474 173.028938,141.276406 166.852761,142.305769 C166.30799,142.396564 165.792763,142.028544 165.701968,141.483774 C165.611173,140.939004 165.979192,140.423776 166.523963,140.332981 Z"></path>
                <path fill="#000000" id="形状-697" d="M55.6409992,138.980131 C55.7653802,138.482607 56.242407,138.166184 56.7389065,138.230766 L56.8536774,138.252524 L73.627349,142.445942 L73.7492127,142.484841 L73.7957599,142.501668 L73.9390029,142.545251 C73.9684328,142.553459 74.0006353,142.562086 74.0356025,142.571053 L74.2785173,142.628295 C74.324511,142.638303 74.3732533,142.648492 74.4247362,142.658783 C77.2215983,143.217819 81.1420513,142.794012 86.130463,140.617476 L86.533,140.438 L86.5709015,140.414656 C86.8990969,140.208755 87.398118,139.94884 88.0527331,139.686818 L88.3054775,139.588563 C92.7634756,137.905503 97.9833483,138.421827 103.355303,142.628779 C103.790119,142.969298 103.866562,143.597832 103.526043,144.032648 C103.185525,144.467465 102.556991,144.543908 102.122175,144.203389 C97.3350179,140.454411 92.849685,140.010743 89.0118847,141.459656 C88.5925559,141.617968 88.2243,141.786521 87.9115797,141.95326 L87.7278305,142.054529 L87.5709777,142.149514 L87.4255894,142.230483 C81.8319618,144.760934 77.3274348,145.278535 74.0327303,144.619989 C73.6916557,144.551815 73.4214847,144.481105 73.2234141,144.418275 L73.094,144.374 L56.3686061,140.192809 C55.8710823,140.068428 55.5546594,139.591401 55.6192413,139.094901 L55.6409992,138.980131 Z"></path>
                <path fill="#000000" id="形状-696" d="M18.417851,78.5747117 C18.9103506,78.3247865 19.5122048,78.5214319 19.76213,79.0139315 L19.8989425,79.2726893 L20.095957,79.6312529 L20.3293271,80.0424321 C20.8111732,80.8790674 21.3886135,81.8133326 22.0607631,82.82071 C23.983692,85.70268 26.2757229,88.5855967 28.9282788,91.2737536 L29.4825812,91.8272492 L30.0444011,92.3717137 L30.4024746,92.7135111 L28.1675852,112.827515 L15.211,114.986 L14.5745674,115.782668 L14.0416241,116.463577 L13.4752603,117.200811 C13.3782588,117.328231 13.279998,117.457889 13.1805445,117.58973 C11.4749623,119.850737 9.7692639,122.285363 8.17872794,124.798242 C6.28946955,127.783071 4.69201349,130.677737 3.4800707,133.401404 C2.0322239,136.655231 1.18201971,139.562076 1.01927282,142.020634 L1.002,142.349 L1.03772657,142.681547 L1.09825384,143.149984 C1.19610424,143.857163 1.33382358,144.647355 1.5180249,145.499388 C2.04414028,147.932961 2.83497568,150.365232 3.93964179,152.626244 C4.96264699,154.720115 6.20625258,156.559107 7.68778038,158.077998 L7.741,158.131 L8.60520743,158.121569 C8.7517385,158.120585 8.90034254,158.119965 9.05098796,158.119722 L9.97910462,158.122879 L10.9546991,158.135644 L11.9762559,158.158584 L13.0422595,158.192269 L14.1511943,158.237266 L15.3015448,158.294145 L16.4917954,158.363475 C16.8950273,158.388722 17.3046565,158.41614 17.7204307,158.445822 L18.985935,158.541756 C19.4137462,158.576062 19.8474497,158.612727 20.2867928,158.651846 L20.9500057,158.712377 C28.7251377,159.439294 36.4242383,160.791264 43.6721549,162.912597 L44.7559117,163.236585 L45.04,163.324 L45.2325048,163.244612 C45.6442823,163.070332 46.1051916,162.857756 46.6027533,162.606235 C48.0268928,161.886321 49.4513726,161.002169 50.7765707,159.950694 C54.7550173,156.794006 56.9922073,152.862094 56.6885841,148.029135 L56.6610359,147.664972 L55.6126814,128.794591 C55.5820461,128.243157 56.0042373,127.771296 56.5556717,127.740661 C57.067718,127.712214 57.5111522,128.074214 57.5964157,128.567583 L57.6096021,128.683651 L58.6556033,147.521351 C59.1622653,153.246631 56.5788434,157.89998 52.0196908,161.517427 C50.5803754,162.659448 49.0428763,163.613749 47.5050369,164.391139 C47.0737322,164.609167 46.6663615,164.800872 46.2891734,164.966809 L45.7612191,165.190613 L45.4192425,165.323599 L45.1023055,165.438184 L44.1719456,165.149432 C36.7519714,162.884215 28.801846,161.455188 20.7638325,160.703693 L19.4654556,160.58805 C19.0383016,160.551905 18.6168707,160.518132 18.2014176,160.486637 L16.9732464,160.398893 C16.771625,160.385376 16.5715618,160.372406 16.3730885,160.35997 L15.2015827,160.291673 L14.0697638,160.235639 L12.97916,160.191303 L11.9312992,160.158105 L10.9277094,160.135482 C10.6007278,160.129641 10.2813793,160.125469 9.96991875,160.122871 L9.05945519,160.11971 L8.19784679,160.125436 L7.37161231,160.140852 L6.94778815,160.154902 L6.64305991,159.860003 C4.82920855,158.104663 3.34060583,155.956165 2.14264803,153.504204 C0.960724662,151.085063 0.121147253,148.502883 -0.436813828,145.922005 C-0.599501698,145.169485 -0.728222921,144.461076 -0.82709613,143.808708 L-0.908376645,143.235405 L-0.96570359,142.765492 L-0.989153662,142.536 L-0.996815279,142.447475 L-0.999301981,142.330373 C-0.893431783,139.498345 0.0339776196,136.226405 1.6528024,132.588329 C2.90822898,129.766939 4.55119241,126.789811 6.48879978,123.728596 C8.1109133,121.165827 9.84733934,118.687342 11.5838816,116.385293 L12.1770029,115.606115 C12.2732847,115.480798 12.3682364,115.357791 12.4617919,115.237146 L13.0058405,114.542065 L13.6309895,113.760825 L14.1467306,113.136737 L26.347,111.103 L28.306,93.472 L28.080061,93.2530603 L27.5046698,92.6785089 C24.7567272,89.8936851 22.3867233,86.9126939 20.3970931,83.930756 C19.7994536,83.0350499 19.2729245,82.1933333 18.8178153,81.4209389 L18.4680106,80.8163507 L18.1387018,80.2221906 L17.9786312,79.9189906 C17.728706,79.426491 17.9253514,78.8246368 18.417851,78.5747117 Z"></path>
                <path fill="#000000" id="形状-706" d="M134.280657,20.8111399 L134.757385,20.8599676 L135.384961,20.9315084 L135.827264,20.985546 L136.758301,21.1078949 L137.746745,21.2497421 C137.915969,21.2750393 138.08736,21.3011723 138.260806,21.3281528 C141.236325,21.7910113 144.212979,22.4061864 146.998699,23.1954738 C149.95122,24.0320215 152.518671,25.0184628 154.59481,26.1751693 C155.077268,26.4439674 155.250474,27.0529811 154.981676,27.5354394 C154.712878,28.0178977 154.103864,28.1911034 153.621406,27.9223052 C151.6982,26.8508049 149.268736,25.9173791 146.453494,25.1197272 C143.754397,24.3549832 140.854462,23.7556633 137.953392,23.3043857 L137.45152,23.2278331 L136.486995,23.0894087 C136.330827,23.0679472 136.177028,23.047283 136.025713,23.027405 L135.148535,22.9174849 L134.098089,22.8027898 C133.54811,22.752375 133.143133,22.2656598 133.193548,21.7156809 C133.240362,21.2049862 133.663373,20.8193188 134.163909,20.8071939 L134.280657,20.8111399 Z"></path>
                <path fill="#000000" id="形状-705" d="M31.51207,113.565947 L32.0589647,113.648847 L32.217911,113.67614 C32.7700759,113.77275 33.3843955,113.899575 34.0455161,114.060343 C35.9349318,114.519801 37.8249304,115.15988 39.5932567,116.012045 C42.7642488,117.540161 45.1932556,119.580527 46.5707714,122.217486 C46.6986303,122.462244 46.6038645,122.76431 46.359106,122.892169 C46.1143475,123.020028 45.8122815,122.925262 45.6844225,122.680504 C44.420085,120.2602 42.1524638,118.355399 39.1591316,116.912897 C37.4600254,116.09409 35.6349179,115.475987 33.8092274,115.032026 C33.2978941,114.907682 32.8160499,114.804451 32.3716848,114.720527 L31.8950606,114.635324 L31.3891986,114.55837 C31.1151487,114.52444 30.920493,114.274773 30.954423,114.000723 C30.984583,113.757123 31.1852019,113.576254 31.4218856,113.562899 L31.51207,113.565947 Z"></path>
                <path fill="#000000" id="形状-707" d="M152.597883,149.514703 C152.703649,149.259619 152.996177,149.138573 153.251261,149.24434 C153.506345,149.350107 153.627391,149.642634 153.521625,149.897719 C150.626239,156.880707 146.454288,161.616508 141.338869,164.422834 C136.175542,167.255441 130.734375,167.856346 125.933753,167.19475 L125.673076,167.157151 L125.19802,167.07913 L124.771421,166.996218 L124.636007,166.965716 C124.367688,166.90045 124.203082,166.630025 124.268349,166.361707 C124.333616,166.093388 124.60404,165.928782 124.872359,165.994049 L125.174537,166.057627 L125.591437,166.131994 C125.740867,166.15655 125.90062,166.180732 126.070278,166.204113 C130.676291,166.83889 135.909143,166.26099 140.857892,163.5461 C145.771053,160.850734 149.788464,156.290359 152.597883,149.514703 Z"></path>
            </g>
            <g fill-rule="nonzero" transform="translate(200.437653, 281.355287)" id="脚">
                <path fill="#FFFFFF" id="椭圆-4" d="M161.873654,13.7529439 C171.308844,6.72896887 183.050415,6.41446253 187.977681,13.1239312 C192.904947,19.7285644 189.13087,30.8411218 179.69568,37.8650968 C170.26049,44.8890718 158.51892,45.2035782 153.591654,38.4941095 C148.664388,31.8894763 152.333628,20.7769189 161.873654,13.7529439 Z"></path>
                <path fill="#000000" id="椭圆-4备份" d="M161.27651,12.9508099 C151.366032,20.2475179 147.46419,31.953046 152.79013,39.092072 C158.087614,46.3057157 170.446045,45.9976108 180.292824,38.6672308 C190.034848,31.4148354 193.990585,19.8976312 188.960696,12.7758452 L188.783685,12.5320217 C183.48172,5.31232497 171.123289,5.6204299 161.27651,12.9508099 Z M187.171676,13.7158407 C191.703358,19.7902703 188.164801,30.3136326 179.098536,37.0629629 C170.044664,43.8030677 158.934518,44.080052 154.397658,37.9022 C149.840433,31.793531 153.347535,21.2722228 162.466551,14.5582221 C171.52467,7.81497295 182.634816,7.53798871 187.171676,13.7158407 Z"></path>
                <path fill="#FFFFFF" id="椭圆-4-拷贝" d="M21.9183315,0.0195002206 C33.6599016,0.438842011 42.9902565,7.462817 42.6757501,15.7448174 C42.3612438,24.0268177 32.6115471,30.42178 20.869977,30.0024383 C9.02357141,29.5830965 -0.306783431,22.5591215 0.00772291168,14.2771211 C0.322229255,5.99512074 10.0719259,-0.39984157 21.9183315,0.0195002206 Z"></path>
                <path fill="#000000" id="椭圆-4-拷贝备份" d="M-0.991556829,14.2391738 C-1.33047372,23.1639852 8.49194401,30.5649041 20.8346009,31.0018123 C33.0576757,31.4383508 43.3359692,24.7113613 43.6750298,15.7827647 C44.0098549,6.96570566 34.4165135,-0.384288084 22.3439943,-0.963543296 L21.9537075,-0.97987385 C19.0720982,-1.08187772 16.3010761,-0.79221065 13.7423673,-0.174006976 L13.0498781,0.0026921279 C5.03403293,2.15810614 -0.73873406,7.58150751 -0.991556829,14.2391738 Z M21.8826399,1.01886307 C33.1533394,1.42138806 41.9659251,8.08456257 41.6764704,15.70687 C41.3859758,23.3565609 32.1452337,29.4044884 20.9056685,29.0030754 C9.54658103,28.6009838 0.717135314,21.9482417 1.00700265,14.3150684 C1.29457035,6.74245253 10.3442601,0.755257294 21.497536,1.00768956 L21.8826399,1.01886307 Z"></path>
            </g>
            <g fill-rule="nonzero" transform="translate(225.291377, 165.149220)" id="衣服线条">
                <path fill="#64BEF8" id="形状结合" d="M94.1912574,-2.84217094e-14 C77.9261333,18.1450463 58.6813211,23.5121089 41.9194256,23.6809143 C41.7537466,29.0274949 41.5798711,47.603482 46.1355228,67.075969 C84.6283462,66.1731559 125.802537,56.5258432 125.802537,56.5258432 L124.754183,63.8643246 C91.0491664,70.3328146 66.1318166,72.970949 47.8322185,73.5702299 C51.5465573,86.3741334 57.5218539,98.9752671 67.0946865,107.895213 L60.7078507,109.991922 C60.7078507,109.991922 49.1327132,100.71565 41.6170798,73.7024381 C8.08543213,73.9846202 0,66.9610335 0,66.9610335 L1,61.7676156 C11.6265541,65.6596718 25.4263446,67.1111961 39.9603714,67.1449182 C37.3142823,55.5463466 35.4653523,41.1599274 35.3367129,23.4871515 C15.7954487,22.1603457 1.04835448,14.5916642 1.04835448,14.5916642 C3.04022798,12.3901198 5.28515871,13.2560435 5.28515871,13.2560435 C57.3921148,31.7716438 90.7900146,1.75049656 90.7900146,1.75049656 C92.1326039,1.10562039 93.2464049,0.514654293 93.8047118,0.212036214 L93.9697921,0.122164666 C94.1134022,0.043615851 94.1912574,-2.84217094e-14 94.1912574,-2.84217094e-14 Z"></path>
                <path fill="#000000" id="形状结合备份" d="M94.9358849,0.66748021 L98.9528387,-3.81375284 L93.5622309,-0.794809807 L93.3265661,-0.666244324 C92.9591361,-0.467087726 92.5621932,-0.256840561 92.1423917,-0.0402188375 L91.2742824,0.400126687 C91.1251751,0.474468398 90.9740208,0.549169059 90.8210661,0.624054004 L90.2279859,0.911078025 L89.902672,1.19702202 L89.5594245,1.48313929 L88.9817854,1.94756039 L88.3824616,2.41226913 C88.1740624,2.57116086 87.9570556,2.73395238 87.7314925,2.90037652 L87.0291855,3.41027973 C86.9078732,3.49699087 86.7844347,3.58454338 86.6588764,3.67290388 C83.7800167,5.69887379 80.3972637,7.72717325 76.5368988,9.62138725 C56.6820328,19.3638253 33.0489598,21.8412349 6.42760818,12.5974706 L5.61998668,12.3137642 C5.59010905,12.3020867 5.54814919,12.287674 5.49607232,12.2718395 L5.31145592,12.2213845 C5.27628309,12.2127023 5.23907231,12.203993 5.20006925,12.1954209 C3.88526111,11.9064509 2.40551478,12.1306667 1.03270156,13.2332773 C0.780976189,13.4354571 0.538730973,13.6644268 0.306818697,13.9207509 L-0.567046872,14.8866023 L0.711770597,15.5417643 L1.04483534,15.7050063 L1.80845265,16.0654901 L2.3860431,16.3282333 L3.01750471,16.6075391 L3.70203292,16.9022301 L4.43882318,17.2111285 C6.68391363,18.140217 9.17527519,19.0603902 11.8819261,19.928144 L12.8488386,20.233067 C19.2968667,22.2327344 26.1025026,23.6685649 33.104437,24.3118888 L34.345,24.416 L34.3489829,24.7651249 C34.5314477,39.9664872 35.9917521,53.4776998 38.5490745,65.3957378 L38.71,66.137 L38.1227917,66.1329653 C23.1978238,65.9726705 10.7520641,64.2744209 1.34391603,60.8286152 L0.240269484,60.4243963 L-1.0909484,67.3379671 L-0.655794554,67.7159729 C-0.58560676,67.7769431 -0.49881704,67.845875 -0.394661576,67.9221212 L-0.162970005,68.0841743 C-0.12042025,68.1127446 -0.0758843886,68.1420796 -0.0293341316,68.1721554 L0.274366476,68.3613075 C0.383808473,68.4271934 0.501534369,68.4958504 0.627770482,68.5670869 L1.03223578,68.7883425 C1.10397721,68.8264441 1.17790278,68.8651427 1.25404076,68.9044141 C2.84826779,69.7267055 4.94196881,70.5417479 7.59827802,71.2976871 L8.03889061,71.4211377 L8.95839981,71.6667579 C12.8486049,72.6729033 17.4768869,73.4618297 22.9039071,73.9841948 L24.2217588,74.1044192 L25.5704684,74.214256 C25.7978351,74.2316881 26.0264954,74.2486811 26.2564531,74.2652318 L27.6517989,74.3592031 C28.1221245,74.3887409 28.5976707,74.4164843 29.0784686,74.442408 L30.5366483,74.5146949 C30.7823145,74.5258244 31.0293013,74.5364927 31.2776127,74.5466966 L32.7834071,74.6023222 L34.3211774,74.6466507 C35.0980877,74.6659655 35.8870588,74.680987 36.6881956,74.6916301 L38.3067213,74.707053 C38.8516576,74.7102311 39.4020318,74.711438 39.9578752,74.7106483 L40.862,74.707 L40.653672,73.9704781 C42.4930915,80.5818476 44.6688302,86.4887713 47.1124332,91.7277128 C49.9219865,97.7512305 52.9382494,102.598133 55.9618874,106.374389 C57.0266434,107.704175 58.0185637,108.806411 58.9126905,109.694447 L59.2544589,110.028271 L59.5508456,110.307468 L59.906743,110.625767 L60.0824915,110.772259 L60.5051475,111.110974 L69.0146743,108.317415 L67.7764042,107.163597 L67.3086037,106.721981 C59.2411434,99.0065394 53.3082431,88.1361952 49.2523016,74.8368947 L49.158,74.524 L50.6094112,74.4666032 L52.4716039,74.3820591 C52.7841452,74.3669093 53.0977756,74.3512289 53.4124968,74.3350165 L55.3139279,74.2313474 L57.2416218,74.1148429 L59.1956616,73.9854351 L61.1761304,73.8430556 L63.1831113,73.6876363 C63.8565329,73.6336489 64.534387,73.577477 65.2166875,73.5191089 L67.2769421,73.3374055 L69.3639581,73.1424576 L71.4778187,72.9341973 C71.8323705,72.898374 72.1880443,72.8619933 72.5448418,72.8250536 L74.6991251,72.5966966 C75.0604244,72.5575154 75.4228509,72.5177724 75.7864063,72.4774662 L77.9812994,72.2288592 C78.3493773,72.1862944 78.7185877,72.1431637 79.0889321,72.0994654 L81.3246219,71.8304549 L83.5876135,71.5477569 C84.3465036,71.4512354 85.1099577,71.3524213 85.8779899,71.2513032 L88.1958343,70.9410256 L90.5412297,70.616856 C90.9344295,70.5616662 91.3287807,70.5058948 91.724285,70.4495403 L94.1111629,70.1044047 L96.5257996,69.7452066 C96.9305569,69.6841646 97.3364743,69.6225338 97.7435535,69.5603128 L100.199984,69.1798932 C101.023451,69.0507182 101.851579,68.9191711 102.684382,68.7852405 L105.196829,68.3762867 L107.737409,67.9529636 L110.306205,67.515203 L112.9033,67.0629367 L115.528777,66.5960965 C115.968727,66.5170716 116.409862,66.4374365 116.852185,66.35719 L119.520392,65.8683612 L122.217188,65.3647881 L125.643246,64.7119493 L126.99948,55.2183111 L125.061924,55.6700228 L123.562019,56.0055116 L121.836336,56.3807806 L120.59414,56.6451897 L118.59731,57.0614412 L117.896905,57.2050871 C116.377164,57.5155074 114.818395,57.8259371 113.223694,58.1350804 L110.80508,58.5976684 L108.33489,59.0573548 L105.815447,59.5131676 L103.249071,59.9641349 C101.523026,60.2629486 99.7672406,60.5578841 97.9848113,60.8476453 C82.5752161,63.3527113 67.3746573,65.1181662 53.1668478,65.8177199 L51.7356684,65.8846632 C50.3094642,65.9478302 48.8982462,65.9996433 47.5025616,66.0398775 L46.926,66.054 L46.8748837,65.8301201 C43.6469227,51.5756564 42.6327652,37.2650957 42.8757805,25.3912982 L42.892,24.664 L43.22493,24.6578248 C62.8303825,24.1569816 80.5165615,16.7533883 94.9358849,0.66748021 Z M86.375,6.289 L86.0942603,6.53129532 C73.4382056,17.3363573 58.7137652,22.3651677 42.6408678,22.6703429 L40.9496324,22.6906301 L40.9199054,23.6499413 C40.5286418,36.2762991 41.5437505,51.8388661 45.1618153,67.303771 L45.3468654,68.0947412 L46.1589704,68.0756941 C48.4852137,68.0211342 50.8547838,67.9339825 53.2652031,67.8153 C67.5556449,67.1116777 82.8277516,65.337913 98.3057292,62.8217303 L99.6427124,62.6026063 L102.285431,62.1590005 L104.884559,61.7090611 C105.313986,61.6335974 105.7415,61.5579103 106.167053,61.4820201 L108.696454,61.0244032 C109.113971,60.9477814 109.52943,60.8709971 109.942783,60.7940703 L112.397253,60.3309634 C112.801991,60.2535482 113.204528,60.1760311 113.604814,60.0984324 L115.979145,59.632023 L118.297158,59.1646272 L119.687542,58.8783176 L122.25689,58.3360643 L124.607,57.822 L123.865,63.016 L120.501182,63.6518288 L117.82734,64.1464377 L115.182074,64.6263698 L112.565302,65.0916938 L109.976941,65.5424781 C109.547911,65.616401 109.120061,65.689721 108.693389,65.7624394 L106.147491,66.1915429 L103.629798,66.6062782 C103.212529,66.6742072 102.796431,66.7415404 102.381503,66.8082792 L99.905963,67.2015907 L97.458422,67.5807054 L95.0387973,67.9456919 L92.6470065,68.2966188 L90.2829671,68.6335545 L87.9465965,68.9565676 L85.6378122,69.2657268 C84.872806,69.3664785 84.1123838,69.4649326 83.3565318,69.5611006 L81.1026727,69.8427575 C80.72931,69.888561 80.3570865,69.9337959 79.9860003,69.9784635 L77.7731184,70.2396736 C77.406575,70.282078 77.0411655,70.3239179 76.6768883,70.3651949 L74.504798,70.6061126 L72.359799,70.8335876 C72.0045522,70.8703837 71.6504308,70.9066226 71.2974329,70.9423056 L69.1929161,71.1497453 C68.844406,71.1832107 68.4970161,71.2161232 68.1507447,71.2484841 L66.0865245,71.4360427 L64.0490654,71.6104329 L62.0382851,71.7717233 C61.7053736,71.7975172 61.3735704,71.8227682 61.0428736,71.8474775 L59.0719566,71.9892468 L57.127512,72.1180877 L55.2094574,72.2340687 L53.3177101,72.3372584 C53.0046066,72.3533946 52.6925958,72.3690006 52.381676,72.384078 L50.5292352,72.4682094 L48.7028954,72.5397209 L46.5132713,72.6128871 L46.8718136,73.8488378 L47.104689,74.6415166 C51.1001061,88.0714331 56.9606815,99.1700255 64.9760626,107.235195 L65.205,107.463 L60.937,108.863 L60.6542308,108.599107 L60.3220628,108.275409 C59.4813446,107.440417 58.5401518,106.39455 57.5230937,105.124335 C54.5986916,101.472016 51.6669142,96.760875 48.9249634,90.8822932 C46.5281862,85.7437436 44.3905659,79.9403077 42.5804876,73.4343982 L42.3750567,72.6960241 L41.6086647,72.7024735 C40.5103702,72.7117161 39.4332767,72.7133078 38.377151,72.7074437 L36.8086593,72.6930802 L35.2714445,72.6676797 L33.7653317,72.6313885 C33.2684583,72.6174926 32.7767395,72.601806 32.290146,72.5843531 L30.8457126,72.52672 L29.4318566,72.4586356 L28.0484031,72.3802464 C27.8203514,72.3663309 27.5935591,72.3519922 27.3680227,72.3372332 L26.0298451,72.2436613 C25.5887898,72.2108061 25.1527287,72.1762944 24.7216328,72.1401507 L23.4432109,72.0268478 C23.2326134,72.0071561 23.0232499,71.9870625 22.8151167,71.96657 L21.5810526,71.8388533 C21.3778262,71.8167776 21.1758228,71.7943092 20.9750389,71.771451 L19.784939,71.62965 C19.3930973,71.5808405 19.006104,71.5304966 18.6239301,71.4786426 L17.4918372,71.3185751 C16.1878618,71.1266017 14.9425663,70.9164297 13.754701,70.6891057 L12.7505661,70.4900805 C12.5855447,70.4562177 12.421688,70.4220109 12.2589924,70.3874633 L11.2967233,70.1761111 C11.1386576,70.1402122 10.9817457,70.1039784 10.8259841,70.0674129 L9.90518718,69.8440633 C9.3004852,69.6925423 8.71406959,69.5358112 8.14570719,69.3740652 C5.61373694,68.6535107 3.64366656,67.8865956 2.17085516,67.1269296 L1.92768758,66.9990814 C1.69277329,66.8731166 1.48250526,66.7528938 1.29586121,66.6392429 L1.103,66.518 L1.761,63.098 L1.85316706,63.1305575 C11.5449785,66.4486056 24.0919998,68.0423081 39.0030747,68.1406659 L41.214869,68.1478316 L40.9353214,66.9224939 C38.1399554,54.6695988 36.5396645,40.6472735 36.3488209,24.7396562 L36.3299345,22.5522865 L35.4044545,22.4894486 C27.4606853,21.9500854 19.7389802,20.3468488 12.492515,18.023628 C9.83968285,17.1731285 7.39951918,16.271865 5.20358689,15.3631197 L4.48724234,15.0628154 L3.82291332,14.7768814 L3.21147429,14.506522 L2.929,14.379 L3.0143042,14.3374164 C3.62138024,14.0606229 4.22123937,14.0280267 4.77075356,14.1487995 L4.92527873,14.1890421 C32.4418986,23.9671314 56.9037942,21.4828075 77.4179176,11.4168833 C80.5842255,9.86323094 83.4397678,8.22002052 85.9717675,6.55770575 L86.375,6.289 Z"></path>
            </g>
            <g fill-rule="nonzero" transform="translate(189.618034, 35.150901)" id="头">
                <path fill="url(#linearGradient-2)" id="帽子" d="M63.4547365,2.16696429 C104.550232,-5.0666816 143.653854,22.0856993 150.782664,62.8666885 C158.01631,103.647678 130.549423,142.541629 89.4539275,149.775275 C48.4632675,157.00892 9.35964553,129.85654 2.12599964,89.0755504 C-5.0028108,48.2945613 22.4640765,9.40061018 63.4547365,2.16696429 Z"></path>
                <path fill="#000000" id="帽子备份" d="M63.2813812,1.18210495 C21.7402577,8.51289134 -6.0816924,47.930058 1.14093695,89.2477464 C8.4697149,130.565078 48.0838622,158.091326 89.6277129,150.760058 C130.857068,143.50285 158.538543,104.796255 151.977063,63.9333909 L151.767727,62.6944924 C144.545291,21.3779114 104.930264,-6.1489484 63.2813812,1.18210495 Z M149.797602,63.0388845 C156.933379,103.268137 129.84158,141.65085 89.2805722,148.790415 C48.8207245,155.930388 10.2457071,129.126189 3.11062993,88.9008988 C-3.92110253,48.6752347 23.171629,10.2911995 63.6285219,3.15174785 C104.19216,-3.98828014 142.766222,22.8152556 149.797602,63.0388845 Z"></path>
                <path fill="#64BEF8" id="蓝色" d="M61.8822048,2.06212884 C52.4470145,28.0613199 58.2129641,43.1576243 58.2129641,43.1576243 C52.9711918,44.1011434 49.511622,44.6253206 49.511622,44.6253206 C41.9634698,25.8597755 53.1808627,3.21531877 53.1808627,3.21531877 L61.8822048,2.06212884 Z"></path>
                <path fill="#000000" id="蓝色备份" d="M61.6419951,0.0914078201 L52.940653,2.24459774 C52.6552037,2.31523356 52.4153126,2.50792657 52.2847822,2.77142707 L52.0654471,3.23341172 L51.8674978,3.66740496 L51.5820416,4.31490242 C51.4834377,4.54274948 51.381513,4.7824964 51.2766601,5.03379907 C50.5297827,6.82385279 49.7836538,8.83775715 49.087461,11.0326914 C46.3881727,19.5429208 45.1827842,28.2248291 46.319868,36.3646451 C46.742667,39.3912525 47.489004,42.2765594 48.5838619,44.9984978 C48.7569002,45.4286903 49.2029706,45.6834992 49.6614274,45.6140361 L51.2942551,45.3563654 L52.701501,45.1261861 L54.7259669,44.7852622 L56.1502747,44.5390337 L58.3901171,44.1418076 C58.9985752,44.0322852 59.3628748,43.4024135 59.1543857,42.8203923 L59.1048965,42.6737771 L59.0369106,42.4554517 L58.9044009,41.9947441 C58.7072228,41.2802321 58.5090573,40.430231 58.3234482,39.4487595 C56.4485699,29.5347031 57.28471,16.6621779 62.8222194,1.40326316 C63.0950995,0.651326711 62.4184943,-0.100740717 61.6419951,0.0914078201 Z M60.322,2.478 L60.1411637,3.00638864 C55.2005663,17.6226709 54.5140156,30.0682216 56.3582804,39.8203985 L56.4431121,40.2562987 C56.5858649,40.9692292 56.7351168,41.6142132 56.8858716,42.1897815 L56.934,42.369 L55.0906946,42.693179 L52.3748756,43.1530374 L50.154,43.513 L49.9504031,42.9556928 C49.180457,40.7727764 48.6347602,38.4797821 48.3006346,36.0879438 C47.2109185,28.2872092 48.3771691,19.8871944 50.9938627,11.6373669 C51.6715078,9.50090945 52.397348,7.54176705 53.1224397,5.80392739 L53.4168366,5.11084721 L53.6911212,4.48862249 C53.7350285,4.39093978 53.7779997,4.29629696 53.8199857,4.20473784 L53.881,4.072 L60.322,2.478 Z"></path>
                <path fill="#F8E3DE" id="椭圆-5" d="M54.7533944,43.8914725 C80.8574208,39.2787128 105.808257,56.4717262 110.316182,82.2612463 C114.824106,108.050766 97.3165861,132.687097 71.2125597,137.299856 C45.1085332,141.912616 20.1576966,124.824438 15.6497724,99.0349179 C11.1418481,73.2453978 28.6493679,48.5042322 54.7533944,43.8914725 Z"></path>
                <path fill="#000000" id="椭圆-5备份" d="M54.5793834,42.9067287 C27.9490677,47.6124873 10.0588865,72.8575209 14.6647079,99.207104 C19.2620557,125.50821 44.7040533,142.999583 71.3865706,138.2846 C98.0325507,133.576073 115.90436,108.423156 111.301246,82.0890602 C106.700079,55.7661039 81.2395597,38.1956936 54.5793834,42.9067287 Z M109.331117,82.4334324 C113.743307,107.675261 96.6037765,131.797562 71.0385487,136.315113 C45.4371954,140.839047 21.0403202,124.066195 16.6348368,98.8627319 C12.2197467,73.6043093 29.378921,49.3908078 54.9274053,44.8762162 C80.504888,40.3565004 104.921537,57.2065316 109.331117,82.4334324 Z"></path>
                <g transform="translate(70.292958, 57.986491)" id="左眼">
                    <path fill="#000000" id="形状-11" d="M17.5884381,0.581943709 C17.5884381,0.581943709 7.20972879,5.82371609 1.12927283,10.5413112 C1.12927283,10.5413112 -0.548094333,11.9041721 0.185753801,9.49295676 C0.185753801,9.49295676 5.32269074,2.25931087 15.8062355,0.0577664712 C15.8062355,0.0577664712 18.3222862,-0.256739872 17.5884381,0.581943709 Z"></path>
                    <path fill="#000000" id="椭圆-1" d="M16.5400836,22.4925523 C16.85459,26.5811347 14.2337038,30.2503754 10.5644631,30.6697172 C7.0000579,30.9842235 3.85499447,27.9439955 3.54048813,23.8554131 C3.22598178,19.6619952 5.84686797,15.9927545 9.41127319,15.6782482 C12.9756784,15.2589064 16.2255773,18.4039698 16.5400836,22.4925523 L16.5400836,22.4925523 Z"></path>
                    <path fill="#FFFFFF" id="椭圆-2" d="M10.1451213,21.968375 C10.2499568,23.3312359 9.51610864,24.5892612 8.46775417,24.6940967 C7.41939969,24.9037676 6.37104521,23.7505776 6.26620977,22.3877168 C6.05653887,20.9200206 6.89522245,19.6619952 7.94357693,19.5571597 C8.9919314,19.4523243 10.0402859,20.5006788 10.1451213,21.968375 L10.1451213,21.968375 Z"></path>
                    <path fill="#FFFFFF" id="椭圆-3-拷贝" d="M8.36291872,26.0569575 C8.88709596,25.952122 9.41127319,26.1617929 9.51610864,26.5811347 C9.51610864,26.8956411 9.2016023,27.3149829 8.67742506,27.3149829 C8.15324782,27.4198183 7.62907058,27.2101474 7.52423514,26.8956411 C7.52423514,26.5811347 7.83874148,26.1617929 8.36291872,26.0569575 L8.36291872,26.0569575 Z"></path>
                </g>
                <g transform="translate(17.737193, 69.517519)" id="右眼">
                    <path fill="#000000" id="形状-11" d="M1.68665506,0.268309433 C12.2750353,-1.19938683 19.6135166,3.83271465 19.6135166,3.83271465 C21.1860483,5.82458816 19.0893394,5.09074003 19.0893394,5.09074003 C11.8556935,2.78436018 0.218958796,1.42149936 0.218958796,1.42149936 C-0.724560233,0.897322119 1.68665506,0.268309433 1.68665506,0.268309433 Z"></path>
                    <path fill="#000000" id="椭圆-1" d="M13.1137189,12.7437277 C16.5732886,11.9050441 20.3473647,14.4210949 21.3957192,18.4048419 C22.5489091,22.3885889 20.5570356,26.3723359 17.0974659,27.2110195 C13.5330606,28.1545385 9.86381998,25.6384878 8.71063006,21.5499053 C7.66227558,17.5661583 9.54931364,13.6872467 13.1137189,12.7437277 Z"></path>
                    <path fill="#FFFFFF" id="椭圆-2" d="M13.847567,16.2032975 C14.8959215,15.9936266 16.0491114,16.9371456 16.3636177,18.3000064 C16.7829595,19.6628672 16.1539468,21.0257281 15.1055924,21.3402344 C14.0572379,21.5499053 13.0088834,20.6063863 12.5895416,19.2435255 C12.2750353,17.8806646 12.7992125,16.5178038 13.847567,16.2032975 Z"></path>
                    <path fill="#FFFFFF" id="椭圆-3-拷贝" d="M17.6216431,22.178918 C18.1458203,22.0740825 18.5651621,22.2837534 18.6699976,22.7030952 C18.774833,23.0176016 18.3554912,23.4369434 17.831314,23.4369434 C17.3071368,23.5417788 16.7829595,23.3321079 16.7829595,23.0176016 C16.6781241,22.5982598 17.0974659,22.2837534 17.6216431,22.178918 L17.6216431,22.178918 Z"></path>
                </g>
                <path fill="#64BEF8" id="口罩" d="M64.2934201,139.29173 C21.415722,140.025578 17.9561522,105.954057 17.9561522,105.954057 C43.5360015,101.446133 46.7859003,95.6801836 46.7859003,95.6801836 C57.0597742,85.4063097 70.2690406,91.801272 70.2690406,91.801272 C88.615244,96.6237026 111.888713,89.3900567 111.888713,89.3900567 C114.824106,133.735451 64.2934201,139.29173 64.2934201,139.29173 L64.2934201,139.29173 Z"></path>
                <path fill="#000000" id="口罩备份" d="M70.5231181,138.131095 L69.5251283,138.359114 C69.3646042,138.394632 69.2070533,138.42893 69.0525796,138.462041 L68.1634945,138.646728 L67.3532523,138.80452 L66.626845,138.937014 L65.9892643,139.045804 L65.2103629,139.168034 L64.2934201,139.29173 C29.8369019,139.88145 20.8355451,117.994805 18.6289021,109.374983 L18.4792958,108.76846 L18.3523175,108.212401 C18.3329499,108.124103 18.3144573,108.038037 18.2968061,107.954269 L18.2007237,107.479742 L18.0909047,106.878133 L17.9999864,106.297993 L17.9561522,105.954057 L19.4642999,105.682129 C19.7112427,105.636574 19.9559907,105.590908 20.198563,105.545137 L21.62804,105.269312 L23.0062148,104.99131 L24.3340031,104.711468 L25.6123208,104.430125 L26.8420838,104.147617 C27.2440141,104.053291 27.6380046,103.958827 28.0242079,103.864281 L29.1596089,103.580454 C29.3449997,103.533127 29.5284819,103.485794 29.7100745,103.438462 L30.7771081,103.154532 L31.7997083,102.870953 C32.1332712,102.776524 32.4595812,102.682209 32.7787909,102.588065 L33.7152717,102.306202 L34.6100666,102.025704 C34.7557761,101.979086 34.8997869,101.93254 35.042118,101.886071 L35.8761012,101.60825 C36.0117899,101.562121 36.1458371,101.516084 36.2782619,101.470146 L37.053494,101.195762 L37.7907036,100.92409 L38.4908065,100.655467 L39.1547184,100.390231 L39.7833554,100.128718 L40.3776332,99.8712666 L40.9384676,99.6182131 L41.4667745,99.3698949 C41.5521659,99.3289218 41.6362402,99.2881601 41.7190163,99.2476168 L42.2002492,99.0070335 L42.6512442,98.7720283 L43.273044,98.4307169 L43.652451,98.2111319 L44.0048256,97.998305 L44.3310836,97.7925734 L44.6321408,97.5942742 L45.0384786,97.3114988 L45.2805407,97.1332556 L45.6026788,96.8821447 L45.7914699,96.7260648 L45.9605552,96.5794403 L46.1792384,96.3779697 L46.3030662,96.2564585 L46.4581562,96.0942383 L46.6425335,95.8801387 L46.7859003,95.6801836 C52.0214665,90.4446175 58.019331,89.5378174 62.642924,89.9075405 L63.1701951,89.9556923 C63.2570166,89.9646039 63.3432995,89.9739441 63.4290286,89.9836913 L63.9366356,90.0468845 L64.4302215,90.1188029 L64.9090569,90.1984045 L65.3724125,90.2846475 C65.4483079,90.2995168 65.5235279,90.3146195 65.5980574,90.3299338 L66.2497666,90.4728893 L66.6623065,90.5728042 L67.2463933,90.7269888 L67.7866245,90.883222 L68.2805384,91.0379872 L68.8627867,91.2359793 L69.352482,91.4167741 L69.8255593,91.6058854 L70.2690406,91.801272 C76.1398257,93.3444498 82.5151628,93.6530854 88.4709703,93.3592643 L89.5825422,93.2972672 C89.951277,93.274351 90.3181474,93.2492358 90.6829278,93.2220758 L91.7707733,93.1346162 C91.9509607,93.1190687 92.1305692,93.1030486 92.3095706,93.0865752 L93.3760681,92.9824493 L94.4266415,92.8683698 L95.4599372,92.7452628 L96.4746016,92.6140541 L97.4692809,92.4756697 L98.4426217,92.3310353 L99.3932701,92.181077 L100.773734,91.9481826 L102.095526,91.7085174 L103.354077,91.4652065 L104.54482,91.2213748 L105.663185,90.9801471 L106.704605,90.7446486 L107.66451,90.518004 L108.538332,90.3033383 L109.561625,90.0411524 L110.93203,89.6692176 L111.643451,89.4640135 L111.888713,89.3900567 C114.17832,123.979464 83.9391637,134.969574 70.5231181,138.131095 Z M61.9906408,91.8675346 C57.0257501,91.5870323 52.4341815,93.0290449 48.5162979,96.7847949 L48.336,96.961 L48.291426,97.0249404 C47.7633263,97.7417059 46.7679157,98.6340482 45.1495571,99.6419075 L44.8574661,99.820952 C41.6598402,101.750734 36.8731522,103.641459 30.1648127,105.386745 C27.3731293,106.113048 24.2902627,106.801572 20.901971,107.447409 L20.26,107.567 L20.3385676,107.931669 C20.5300337,108.785737 20.7714869,109.694873 21.0686091,110.647434 L21.2536082,111.224088 C22.5019409,115.01054 24.3818768,118.747611 27.0140627,122.188254 C34.3642581,131.796012 46.1668226,137.460863 63.6256867,137.300364 L64.162,137.293 L64.8127285,137.205036 L65.6841003,137.06913 L66.0061048,137.014928 C67.5873171,136.744039 69.3538693,136.374693 71.2586398,135.892538 C76.701068,134.514895 82.1415579,132.514604 87.2030423,129.784067 C101.75749,121.932329 110.272259,109.824418 110.008138,92.3294512 L110.001,91.993 L109.503831,92.1221343 C108.0268,92.5000422 106.416999,92.8753607 104.695983,93.2330805 L103.951659,93.3852678 C95.8974278,95.0049165 87.7275406,95.8021891 80.0617419,95.323895 C76.4045097,95.0957084 72.9588216,94.5762401 69.7605981,93.7355642 C69.6799342,93.7143611 69.6007151,93.6881434 69.5233998,93.6570791 L69.3989827,93.6021271 L69.2727321,93.5439814 L68.9742643,93.4157031 L68.6163972,93.2739537 L68.2013984,93.121747 C68.1275969,93.0956752 68.0515095,93.0692932 67.9731833,93.0426639 L67.4767387,92.880422 C67.3896464,92.8530543 67.3004099,92.8255649 67.2090762,92.7980165 C65.5826644,92.3074514 63.8218695,91.9709938 61.9906408,91.8675346 Z"></path>
                <path fill="#F9E2DC" fill-opacity="0.1" id="护目镜" d="M112.308055,60.2458023 C112.832232,72.7212206 103.187371,87.6078541 103.187371,87.6078541 C81.591269,110.566817 61.2531921,88.1320314 61.2531921,88.1320314 C53.9147108,83.2047653 50.455141,91.2770948 50.455141,91.2770948 C39.9715962,114.340893 19.7383549,100.817121 19.7383549,100.817121 C9.98865822,96.3091963 4.85172128,79.3258538 4.85172128,79.3258538 C1.70665785,74.5034232 7.47260748,70.2051698 7.47260748,70.2051698 C48.7777739,50.3912702 104.969574,52.8024855 104.969574,52.8024855 C111.05003,52.907321 112.308055,60.2458023 112.308055,60.2458023 Z"></path>
                <path fill="#000000" id="护目镜备份" d="M77.8598377,52.5374727 C62.9480934,53.6670595 48.2430323,55.8970046 34.4790661,59.4864649 C24.5000805,62.0888524 15.2996681,65.3414624 7.04009961,69.3035397 L6.87494238,69.403424 C6.36869007,69.780812 5.64266594,70.4402054 4.91594794,71.3368055 L4.74022488,71.5586358 C2.78853132,74.0807887 2.19990789,76.8744901 3.86162594,79.6291707 L3.935,79.747 L4.15576535,80.4190666 L4.22441467,80.6205971 C4.4942216,81.406892 4.81628458,82.2816745 5.19035613,83.2230643 C6.25931321,85.9132053 7.53278856,88.6039808 9.01097588,91.121567 L9.29121673,91.5926955 C12.1066774,96.2643493 15.3141431,99.7418012 18.9533197,101.549598 L19.242,101.688 L19.4837624,101.840469 L19.7599769,102.006734 L20.0946149,102.200264 C20.1551632,102.234631 20.2180757,102.270014 20.2833176,102.306352 C21.1437435,102.785594 22.116657,103.263731 23.1844728,103.709784 C28.2529074,105.826993 33.5174389,106.502964 38.4836051,104.841577 C43.6188402,103.12363 47.9283476,99.01082 51.1476987,92.1620995 L51.4408176,91.5281059 L51.5532494,91.3088594 C51.5971161,91.226812 51.6474734,91.1360215 51.7046251,91.0371538 C51.9947623,90.5352402 52.3453536,90.0327117 52.7536459,89.5671791 L52.9035477,89.4004413 C54.8637843,87.2743322 57.2756599,86.7737488 60.4500638,88.8012864 L60.603,88.902 L60.8505265,89.1580195 L60.9510198,89.2595165 C61.2981528,89.6080918 61.7046526,89.9949289 62.1679492,90.4104578 C63.4868855,91.5934063 65.0012454,92.7749416 66.6911082,93.8781394 C71.6090381,97.0887252 76.9876166,99.0015605 82.6546689,98.9484786 C89.9500713,98.8801442 97.1129094,95.5251749 103.915766,88.2930113 L104.026624,88.1515954 L104.282363,87.7451853 L104.433853,87.4984289 C104.561054,87.289914 104.693964,87.068705 104.832012,86.8352956 L105.261004,86.0989601 C105.334881,85.970302 105.409901,85.8387172 105.485992,85.7042674 C106.571406,83.7863777 107.656312,81.6754168 108.669368,79.4325696 C110.796221,74.7238439 112.319855,70.0770428 112.977039,65.7051485 C113.26544,63.7865691 113.380508,61.9491887 113.307174,60.2038225 L113.293677,60.0768385 L113.24764,59.8397926 C113.238111,59.7950896 113.227632,59.7478626 113.216174,59.6982221 L113.135423,59.3723012 L113.029689,58.9937606 C113.009903,58.9265802 112.989015,58.8574284 112.966993,58.7864155 C112.675104,57.8451607 112.278531,56.9032902 111.757901,56.0170525 L111.599563,55.7554067 C110.151117,53.4319498 108.069914,51.9609144 105.297685,51.8135381 L104.183924,51.775527 L103.444293,51.7565529 L102.152266,51.7314614 C101.933067,51.727944 101.711953,51.724764 101.488946,51.7219294 L100.12837,51.709128 C99.6673925,51.7062839 99.1990235,51.7049841 98.7234426,51.7049841 L97.2752438,51.7098904 C97.0303314,51.7114814 96.7836609,51.7134645 96.5352549,51.7158478 L95.0241721,51.7350116 L93.4725156,51.7641539 L91.8813644,51.8036504 L90.2517976,51.853877 L88.5848943,51.9152094 L86.8817337,51.9880236 C86.594912,52.001137 86.3066247,52.0147444 86.016894,52.0288537 L84.2613705,52.119595 L82.4722874,52.2227575 L80.6507237,52.338717 L78.7977586,52.4678493 C78.4863742,52.49049 78.1737264,52.5136952 77.8598377,52.5374727 Z M102.764182,53.7426203 L104.12576,53.774681 L104.952335,53.8023369 C107.207242,53.8412146 108.852347,55.0195816 110.03345,57.0301012 C110.469485,57.7723372 110.807554,58.5752598 111.056736,59.3787982 L111.15626,59.7156565 L111.263051,60.1288616 L111.31,60.349 L111.308937,60.2877821 C111.376644,61.8992084 111.269497,63.6101007 110.999259,65.4078484 C110.372928,69.574497 108.903952,74.0546009 106.846675,78.6092896 C105.860072,80.7935702 104.802485,82.8513762 103.745407,84.7191973 L103.527042,85.1022762 L103.11132,85.8158733 L102.583237,86.6902101 L102.398,86.986 L102.458976,86.922697 C96.0178734,93.7702768 89.3668504,96.8855194 82.6359362,96.9485663 C77.4097104,96.9975191 72.3974472,95.2149601 67.7844178,92.2034232 C66.1846509,91.159043 64.7498761,90.0396017 63.5033233,88.9215736 C63.1556237,88.6097233 62.8433136,88.3163259 62.5678388,88.046299 L62.2788673,87.7580754 L61.9940714,87.4603931 C61.9395822,87.4002866 61.8779811,87.3470342 61.8106263,87.3018102 C57.5311563,84.4284518 53.9069581,85.2190001 51.2500161,88.2484306 C50.3911936,89.2276554 49.8278322,90.2022244 49.535996,90.8831755 C46.5227626,97.5117181 42.5466707,101.373364 37.8490882,102.944899 C33.4159159,104.427977 28.6176557,103.811876 23.9553669,101.864324 C22.9599914,101.448531 22.0539557,101.003261 21.2565075,100.559097 L20.658937,100.214406 L20.4465213,100.084125 L20.2940487,99.9857336 L20.1580319,99.909447 C16.6870801,98.3045984 13.5235936,94.8572053 10.7356658,90.1089245 C9.31388152,87.6874017 8.08283456,85.0862747 7.04899607,82.4845133 C6.74740698,81.7255331 6.48107981,81.0121713 6.25032544,80.3572859 L6.00985828,79.6582703 L5.80889464,79.0363384 C5.78142344,78.9455152 5.7411655,78.8590642 5.68933188,78.779586 C4.35043532,76.7266113 4.8069366,74.647574 6.46967566,72.5961427 C6.8248603,72.1579279 7.20723574,71.7608533 7.58874314,71.4143587 L7.79437025,71.2322223 L7.95697096,71.0958067 L7.999,71.062 L7.90511534,71.1068 C16.0414921,67.2038172 25.1224503,63.9934377 34.9837599,61.4217386 C48.620868,57.8653611 63.2106107,55.6529035 78.0109078,54.531759 L79.8660605,54.3968504 L81.6904808,54.2752099 L83.4830848,54.1664635 C83.7791405,54.1493929 84.0738255,54.1328439 84.367117,54.1168088 L86.1099647,54.0267028 L87.8182869,53.9485563 L89.4909997,53.8819955 L91.1270196,53.8266466 L92.7252627,53.7821357 C92.9884283,53.7755996 93.2499747,53.7694995 93.5098793,53.7638277 L95.0494253,53.7348728 L96.5484853,53.7158213 C96.7948946,53.7134506 97.0395718,53.7114769 97.2824943,53.7098926 L98.7187931,53.7049883 C98.9546068,53.7049883 99.1886206,53.7049883 99.420812,53.7059332 L100.791911,53.7143488 C101.016723,53.7164624 101.239667,53.7189264 101.460721,53.7217329 L102.764182,53.7426203 Z"></path>
            </g>
            <g fill-rule="nonzero" transform="translate(224.297419, 41.932201)" id="剑">
                <path fill="#FFFFFF" id="形状-701" d="M0.993957902,5.76437279 L24.0577564,0.522600411 L151.957003,52.9403242 C151.957003,52.9403242 176.907839,65.4157425 181.310928,65.520578 L178.165864,71.8107048 C178.165864,71.8107048 167.68232,68.5608059 147.763585,63.423869 L16.7192751,21.4896899 L0.993957902,5.76437279 Z"></path>
                <path fill="#000000" id="形状-701备份" d="M24.1010954,0 L0,5.47752167 L16.4514359,21.9289576 L147.611197,63.9000811 L150.654179,64.68934 L154.559814,65.7151965 L157.375241,66.4642903 L160.977346,67.4353838 L163.565031,68.1424983 L166.863356,69.0564102 L169.98798,69.9365608 L173.397467,70.9155865 L177.430039,72.1085933 L178.423366,72.4137364 L182.110497,65.0394736 L181.322829,65.0207196 C181.223771,65.0183611 181.112129,65.0089497 180.988173,64.9926148 L180.723922,64.9507517 L180.42731,64.8906555 L180.098817,64.8125559 L179.738921,64.7166827 L179.348098,64.6032656 L178.704926,64.4007479 L177.994861,64.160049 L177.485118,63.9787542 L176.946841,63.7810644 L176.086968,63.4542915 L175.479445,63.2166193 L174.517946,62.83095 L173.497623,62.4109766 L172.048476,61.7989907 L170.099844,60.9529873 L168.463858,60.226179 L166.826793,59.4864166 L165.278122,58.7767261 C162.89342,57.6771648 160.435709,56.514597 157.997306,55.3394125 L155.142325,53.9536384 L152.180609,52.4931106 L24.1010954,0 Z M1.9869579,6.05060041 L24.0139579,1.04460041 L151.791597,53.4162305 L154.209086,54.6102026 L155.736222,55.3557397 C158.163797,56.5363183 160.63392,57.7169161 163.054599,58.8472758 L165.226531,59.8538827 L166.411818,60.3962489 L168.055538,61.1390175 L169.306733,61.696146 L170.256866,62.1139135 L171.619596,62.7038659 L172.90606,63.2489255 L173.720607,63.5868835 L174.876698,64.054986 L175.60297,64.3407493 L176.293173,64.6051365 L176.94687,64.8478627 L177.563626,65.0686432 L178.143008,65.2671932 C178.236433,65.2984165 178.328282,65.3287017 178.418547,65.3580428 L178.941051,65.5227131 L179.425093,65.6644411 C179.579982,65.7078284 179.728387,65.7473445 179.870238,65.7829419 L180.276051,65.8779308 L180.545958,65.9306004 L177.906958,71.2086004 L175.660066,70.5361936 L173.144248,69.8009842 L170.867127,69.1470542 L169.495462,68.7575332 L166.182066,67.8284382 L162.680501,66.8631229 L159.931359,66.1160402 L156.10257,65.0900327 L154.118446,64.5645306 L150.011276,63.4892296 L147.888447,62.9397105 L16.9859579,21.0496004 L1.9869579,6.05060041 Z"></path>
                <path fill="#000000" id="形状-702" d="M25.9475639,2.16412613 C26.1710223,2.0625541 26.4300637,2.13909808 26.5651242,2.33392159 L26.6096486,2.41240789 L32.0383299,14.3555067 L19.0679195,21.9215794 C18.8293936,22.0607195 18.5232347,21.9801514 18.3840946,21.7416255 C18.2604144,21.5296024 18.310331,21.264141 18.4904748,21.1100445 L18.5640485,21.0578005 L30.7539579,13.9466004 L25.6992821,2.82621084 C25.5977101,2.60275238 25.6742541,2.34371099 25.8690776,2.20865054 L25.9475639,2.16412613 Z"></path>
                <path fill="#000000" id="形状-703" d="M30.5081321,12.9288988 C30.5935302,12.6987734 30.830381,12.5689153 31.0637877,12.610374 L31.1508513,12.6340903 L138.50235,52.4715604 C138.761241,52.5676333 138.893231,52.8553885 138.797158,53.1142796 C138.71176,53.344405 138.474909,53.4742631 138.241503,53.4328044 L138.154439,53.4090881 L30.8029406,13.571618 C30.5440495,13.4755451 30.4120592,13.1877899 30.5081321,12.9288988 Z"></path>
                <polygon points="145.666876 31.9732347 153.005357 35.1182981 141.473458 77.0524772 133.086622 73.9074138" fill="#FFFFFF" id="形状-705"></polygon>
                <path fill="#000000" id="形状-705备份" d="M153.60307,34.8304769 L145.348934,31.2929901 L132.473395,74.2114538 L141.81042,77.7128383 L153.60307,34.8304769 Z M145.984,32.653 L152.407,35.405 L141.136,76.392 L133.699,73.603 L145.984,32.653 Z"></path>
                <path fill="#FFFFFF" id="椭圆-704" d="M183.512472,63.7383753 C185.504346,64.2625526 186.238194,67.1979451 185.294675,70.2381731 C184.351156,73.2784011 182.044776,75.2702746 180.157738,74.6412619 C178.165864,74.1170847 177.432016,71.1816921 178.375535,68.1414642 C179.319054,65.1012362 181.625434,63.1093627 183.512472,63.7383753 Z"></path>
                <path fill="#000000" id="椭圆-704备份" d="M177.898003,67.9932645 C176.893794,71.2290492 177.681285,74.3571783 179.860149,75.0744207 L180.030491,75.1247992 C182.210158,75.8524482 184.754156,73.6667599 185.772207,70.3863727 C186.776416,67.1505881 185.988925,64.022459 183.810061,63.3052165 L183.670586,63.2640337 C181.460052,62.5271891 178.916054,64.7128773 177.898003,67.9932645 Z M183.354358,64.212717 L183.385226,64.2219126 C185.008713,64.6491461 185.700536,67.2434838 184.817143,70.0899735 C183.943782,72.904136 181.870727,74.6852118 180.315852,74.1669203 C178.661497,73.7304912 177.969674,71.1361535 178.853067,68.2896638 C179.726428,65.4755012 181.799484,63.6944254 183.354358,64.212717 Z"></path>
            </g>
            <g fill-rule="nonzero" transform="translate(355.198124, 92.105911)" id="手">
                <path fill="#FFFFFF" id="形状-707" d="M36.7816146,17.443577 L35.7332601,38.4106666 C35.7332601,38.4106666 42.023387,45.539477 38.8783235,49.9425658 C35.7332601,54.3456546 13.8226516,66.5065665 2.18591686,44.7007934 C2.18591686,44.7007934 -2.32200739,38.6203375 6.37933477,34.2172487 L8.47604372,26.8787673 L13.7178161,12.2018046 L36.7816146,17.443577 Z"></path>
                <path fill="#000000" id="形状-707备份" d="M37.8223128,16.6545981 L13.0744276,11.0300787 L7.53430181,26.5424309 L5.53556951,33.529 L5.19301593,33.7169367 C3.6559371,34.5817722 2.47525835,35.5475317 1.62823531,36.6049554 C-0.314612112,39.0304066 -0.373123498,41.6548933 0.687778377,44.0523242 L0.782127589,44.258513 C0.939281424,44.590702 1.09475395,44.8651606 1.2304393,45.0753655 L1.33656951,45.232 L1.30368136,45.1716018 C6.68280416,55.2513995 14.6802347,59.2238419 23.8337505,58.1431048 C30.423982,57.3650095 37.4719459,53.6319595 39.692057,50.523804 C40.6705041,49.1539781 40.9467012,47.512669 40.6413217,45.7052752 C40.3665642,44.0791176 39.6385664,42.3846162 38.5998969,40.6811981 C38.1396808,39.9264437 37.6477904,39.2194333 37.1553997,38.5782311 L37.0317903,38.4185868 L36.7515695,38.067 L37.8223128,16.6545981 Z M14.3605695,13.373 L35.7405695,18.232 L34.7141865,38.7671543 L35.036875,39.1338254 L35.2610046,39.4043748 L35.4580217,39.6527907 C35.493723,39.698532 35.5307952,39.7464029 35.5691459,39.796344 C36.0202742,40.3838133 36.4719029,41.0329542 36.8923045,41.7224129 C37.8099812,43.2274026 38.4434324,44.7018358 38.6692726,46.038475 C38.8919832,47.3565919 38.7056585,48.4638318 38.0645901,49.3613276 C36.1937612,51.9804881 29.6596697,55.4413585 23.5992434,56.1569008 C15.2479071,57.1429262 8.05165535,53.5684411 3.06815236,44.229985 L2.98922863,44.1052347 L2.89743707,43.9701618 L2.78360165,43.7791072 C2.70185834,43.6338515 2.60990392,43.453598 2.51670799,43.2429934 C1.7317283,41.4690926 1.77287581,39.6234505 3.18919202,37.855321 C3.97651568,36.872426 5.17219843,35.9488297 6.83084328,35.1095155 L7.22079576,34.9121901 L9.43756767,27.1534884 L14.3605695,13.373 Z"></path>
                <path fill="#FFFFFF" d="M17.911234,0.669905403 C17.911234,0.669905403 23.99169,-2.16065168 33.6365512,3.81496883 C33.6365512,3.81496883 41.8137161,11.1534502 34.6849056,20.5886405 C34.6849056,20.5886405 32.1688549,24.7820584 26.2980698,20.5886405 C26.2980698,20.5886405 22.7336646,19.8547923 21.0562974,17.443577 C21.0562974,17.443577 15.0806769,19.4354505 12.6694616,17.443577 L17.911234,0.669905403 Z"></path>
                <path fill="#000000" id="手备份" d="M18.7162673,-0.636300775 C18.1384642,-0.49468515 17.7264841,-0.347134442 17.4892044,-0.236676659 L17.0885677,-0.0501733575 L11.5145705,17.7866177 L12.0325802,18.2145388 C13.7620773,19.6432538 16.6088744,19.5939473 19.9348088,18.7921938 L20.5782184,18.6271653 L20.693,18.595 L20.857012,18.7769881 C21.3875054,19.3378953 22.0244902,19.8252094 22.7455558,20.2469185 C23.4775592,20.6750246 24.2543014,21.0115543 25.0304109,21.2693795 L25.4069384,21.3884893 L25.7291327,21.4799227 L25.883,21.519 L25.7168316,21.4023739 C28.4237401,23.33588 30.8058933,23.8391518 32.8053981,23.1823801 C33.5518982,22.9371794 34.1894479,22.5461173 34.7218416,22.062123 C35.0149913,21.7956233 35.2435041,21.532708 35.4118374,21.29846 L35.5383235,21.1098677 C39.6472001,15.6797318 39.3957991,10.335216 36.4632627,5.7262732 C35.6655736,4.47257915 34.8631319,3.57209796 34.3044609,3.07072655 L34.1632238,2.96490066 C28.0138891,-0.845013256 22.7530764,-1.62569535 18.7162673,-0.636300775 Z M33.031,4.618 L33.0742307,4.65893815 L33.221186,4.80759972 L33.4051569,5.00410621 C33.4386616,5.04078384 33.4735274,5.0794096 33.5096636,5.1199608 C33.9401893,5.60308653 34.3724501,6.16587665 34.7758689,6.79991285 C37.2920597,10.754503 37.5012777,15.2022552 33.8870383,19.9858074 L33.8239988,20.0789941 C33.5403751,20.5143761 32.9867282,21.0176914 32.1812704,21.2822579 C30.8849448,21.7080583 29.2360237,21.3876815 27.1432262,19.9592573 L26.7070557,19.6518696 L26.4997227,19.6091834 L26.3340167,19.5707459 L26.1057185,19.5091874 L25.8216958,19.4235351 C25.7700965,19.4071979 25.7164614,19.3898162 25.6609338,19.3713698 C25.0084471,19.1546123 24.3565931,18.8721914 23.75524,18.5204951 C22.9583124,18.0544187 22.3163942,17.5038503 21.8772026,16.8725125 L21.4499105,16.2582801 L20.6529504,16.5231928 L20.4233201,16.5931849 L19.9516931,16.7247653 L19.4590225,16.8496249 L19.1591554,16.9197085 C16.970699,17.414954 15.0230028,17.4963171 13.855,16.998 L18.719,1.436 L18.7563227,1.42485425 C18.8791641,1.38757073 19.024673,1.34730577 19.1923626,1.30620618 C22.6303659,0.463574836 27.19973,1.109439 32.7053595,4.41816573 L33.031,4.618 Z"></path>
            </g>
            <g fill-rule="nonzero" transform="translate(144.983393, 127.475854)" id="盾">
                <path fill="#FFFFFF" id="形状-708" d="M22.648488,1.99236932 C22.648488,1.99236932 67.8325659,-7.75732731 93.9365924,35.5397126 C93.9365924,35.5397126 86.8077819,101.586045 18.4550701,109.97288 C18.4550701,109.97288 -23.479109,71.6031066 22.648488,1.99236932 Z"></path>
                <path fill="#000000" id="形状-708备份" d="M25.555104,0.529605071 C24.9789136,0.599484914 24.4466874,0.672794552 23.9606386,0.747347816 L23.2664751,0.859837158 L22.5974416,0.981978743 L22.0397171,1.10071317 L21.8148958,1.43998896 C7.41466085,23.1712526 0.569796473,43.2748017 0.0343730076,61.6674613 C-0.380670326,75.9248692 2.98650658,88.3045324 8.8566069,98.7249072 C10.796431,102.168408 12.8763519,105.144976 14.9591491,107.647916 C15.586333,108.401616 16.1762294,109.066369 16.7180793,109.64165 L17.2451315,110.188806 L17.4654352,110.40932 L17.7176226,110.652802 L18.1197675,111.021521 L18.5768561,110.965437 C47.0284393,107.474445 67.2116892,93.9998595 80.4451449,73.7392306 C85.8831921,65.4134948 89.7616548,56.4989497 92.3440009,47.5844113 C93.2481571,44.4631664 93.9260184,41.5633189 94.410119,38.9581871 C94.4667545,38.6534091 94.5193576,38.359886 94.5680782,38.0779572 L94.7027424,37.2672935 L94.8398649,36.3537274 L94.9308177,35.6470258 L94.966981,35.3119831 L94.7929856,35.0233883 C87.525977,22.9700769 78.3836963,14.2559157 67.8008437,8.48183746 C53.5779811,0.72174441 38.6139882,-1.05416443 25.555104,0.529605071 Z M67.4456211,10.5705266 C77.2632034,16.0636865 85.7885916,24.2048021 92.6614781,35.3687496 L92.9006771,35.7622925 L92.8589111,36.0783689 L92.7840628,36.5899092 L92.6648915,37.3385421 C92.6431842,37.4692351 92.6205418,37.6028601 92.5969459,37.7393745 L92.4437808,38.5927908 C91.9712828,41.135485 91.3082758,43.9717865 90.4229773,47.0279329 C87.8925958,55.7630838 84.0921853,64.498228 78.7706805,72.6455355 L78.3809693,73.2370887 C65.5841641,92.4957756 46.291473,105.33687 19.1661007,108.874925 L18.8046771,108.920292 L18.4252027,108.534146 C17.8451562,107.932127 17.1965844,107.209944 16.4964933,106.36863 C14.4884171,103.955484 12.4774646,101.077616 10.5991403,97.7432875 C4.90025079,87.6268394 1.6295766,75.6019753 2.03352611,61.7256581 L2.05577449,61.0580428 C2.71641435,43.4565461 9.28856168,24.1993319 22.9595153,3.3377334 L23.2516771,2.8922925 L23.6041354,2.83112748 L24.2664458,2.72383034 L24.9975934,2.61793192 C25.2525955,2.58304607 25.5187903,2.5486641 25.7958978,2.51505675 C38.4763829,0.977179141 53.0377336,2.70530288 66.8429332,10.2375161 L67.4456211,10.5705266 Z"></path>
                <path fill="#64BEF8" id="形状结合" d="M50.9057044,3.0407238 C56.182667,3.64375848 60.3892491,6.18578723 60.3892491,6.18578723 C50.5070376,21.2052808 43.2003624,38.0953488 37.8685604,53.7756849 C49.625406,58.5168478 64.6951886,63.5594671 83.3563387,67.9419924 L78.2112752,74.3288282 C78.2112752,74.3288282 56.5665335,68.7813734 35.5253115,60.9831455 C27.2797738,87.5159404 24.7451969,108.924526 24.7451969,108.924526 L17.8200339,109.956625 C18.4074331,93.0531172 22.7218653,74.7251418 28.0521311,58.0973361 C17.9751757,54.040638 8.67998451,49.5368944 2.7781074,44.9749029 L4.82646188,36.588067 C4.82646188,36.588067 12.9326012,42.8810866 30.5316039,50.6743441 C39.8703837,23.8102676 50.9057044,3.0407238 50.9057044,3.0407238 Z"></path>
                <path fill="#000000" id="形状结合备份-2" d="M51.0192423,2.04719013 L50.3423048,1.96983184 L49.6269381,3.32905179 L48.9743402,4.60246286 L48.1406415,6.25940062 L47.4472685,7.65884434 L46.7342638,9.11669063 L46.0027137,10.6316894 L45.2537041,12.2025908 C45.1274746,12.4689967 45.0005629,12.7376799 44.8729916,13.0086142 L44.0998296,14.6610255 L43.3119237,16.3662142 L42.5368625,18.06439 C38.1555242,27.722585 33.9612489,37.9727386 30.2389658,48.4877205 L29.947,49.318 L29.1675358,48.9675248 C26.256217,47.6480643 23.5295406,46.3357065 20.9849663,45.0391883 L19.4800536,44.2632481 C16.7610349,42.8444321 14.2617449,41.4468966 11.9788023,40.0822708 L10.9015354,39.4307661 C9.6816657,38.6841144 8.59092967,37.9850497 7.62762837,37.3394248 L6.79086732,36.7701421 L6.07529722,36.2670761 L5.55568356,35.8863587 L4.2204484,34.8545699 L1.65251816,45.3687702 L2.16653819,45.7660938 L2.54076998,46.0519724 C4.99911509,47.9082173 8.04831325,49.7939516 11.6370179,51.703283 L12.7881668,52.3070073 L13.974824,52.9122592 C14.9784001,53.4172607 16.0185897,53.9238105 17.0944568,54.4318012 L18.4025627,55.0420747 L19.7445597,55.6536902 L21.1200886,56.2666065 C21.3521177,56.3688653 21.5855291,56.4711766 21.8203151,56.5735395 L23.245468,57.1883296 C23.7259778,57.3934615 24.2119266,57.5987931 24.7032544,57.8043174 L26.1933149,58.4214616 L26.817,58.676 L26.3812808,60.0636996 C20.7266927,78.1839872 17.3381466,95.0295951 16.8206371,109.921896 L16.7789043,111.122836 L25.6484193,109.800958 L25.7689376,108.792839 L25.9586114,107.374693 L26.1288157,106.186352 L26.2588044,105.314481 L26.4785056,103.89406 L26.7167324,102.416191 L26.9737545,100.882266 L27.2498418,99.2936773 L27.5452642,97.6518161 L27.8602915,95.9580742 C27.9144448,95.6715378 27.9694262,95.3828977 28.0252413,95.0921829 L28.3263467,93.5448487 C30.2641503,83.7182103 32.7884902,73.3879491 35.9720972,62.9318644 L36.17,62.286 L36.8961418,62.5522877 C45.8815464,65.8266986 55.504414,68.9172455 65.1267011,71.7301795 L66.9391448,72.2566512 L69.562125,73.0064015 L72.0616356,73.7069248 L74.8423885,74.4691792 L77.963004,75.2975188 L78.5863407,75.4572773 L85.1320089,67.3317976 L83.584966,66.9684784 L82.0883799,66.6137903 C66.6753221,62.9276232 52.8633094,58.5906442 40.5973321,53.7843244 L39.122,53.2 L38.8153241,54.097614 C44.8241842,36.4261129 52.2463045,20.3811799 61.2246416,6.73544122 L61.7958046,5.86735828 L60.8281909,5.28339871 L60.5097535,5.10388572 L60.0701078,4.870746 L59.8975785,4.78251361 C59.1114645,4.38410238 58.2260206,3.98664483 57.2583841,3.61586603 C55.2455596,2.8445923 53.1461297,2.29024414 51.0192423,2.04719013 Z M51.9583939,4.20175255 C53.5108915,4.46957956 55.0506027,4.91168872 56.542762,5.48345407 L56.9864476,5.6578874 C57.5692069,5.89286823 58.1162202,6.13683406 58.6219622,6.3822578 L58.958,6.548 L58.2674027,7.62395772 C49.7628874,20.983573 42.6930009,36.4811785 36.9217966,53.4537558 L36.617273,54.3493314 L37.4945581,54.7031127 L38.6754524,55.1759309 C50.9278981,60.046637 64.7269691,64.447856 80.1270451,68.1978763 L81.583,68.548 L77.837,73.198 L75.7633468,72.6462607 L73.3966485,72.0010123 L71.780316,71.552564 L69.24857,70.8382909 L67.4934551,70.3350008 L65.6878839,69.8105249 C56.1041968,67.008875 46.5210903,63.931098 37.580919,60.6731709 L35.8728289,60.045472 L34.8834833,59.678804 L34.5703618,60.6863779 C30.9511639,72.3323661 28.148189,83.8444918 26.0611138,94.7150847 L25.894999,95.5870951 L25.5777135,97.2930051 L25.2801265,98.9469444 L25.0019658,100.547525 L24.742959,102.093359 L24.5028337,103.58306 L24.2139273,105.463884 L24.031773,106.714711 L23.848,108.047 L18.868,108.789 L18.8980217,108.144626 C19.6287231,93.6048319 23.0610116,77.1881902 28.6376698,59.5543504 L29.2882933,57.5169894 L27.6895328,56.8720088 L26.2050727,56.2630559 C25.9603145,56.1616697 25.7168877,56.0603375 25.4748004,55.9590609 L24.0384146,55.3520796 C23.8017175,55.2510311 23.566376,55.1500413 23.3323983,55.0491116 L21.9449619,54.4442669 C21.7164716,54.3435838 21.4893613,54.2429638 21.2636391,54.1424086 L19.9260272,53.5398656 C19.7058896,53.4395753 19.4871563,53.3393527 19.2698353,53.2391994 L17.982923,52.6391232 L16.7302965,52.0407833 C15.7008349,51.5429104 14.7074929,51.0469226 13.7512832,50.5530109 L12.62172,49.9613255 C9.28689001,48.1893322 6.43854622,46.4452348 4.12394287,44.7379473 L3.905,44.574 L5.444,38.27 L6.09805094,38.7199307 C6.77616076,39.1809922 7.51935473,39.6695344 8.32824965,40.1834188 L9.33049948,40.8121074 C9.8474321,41.1323969 10.3881059,41.4615016 10.952654,41.7989595 C13.897055,43.558971 17.1927994,45.3710384 20.8468076,47.2111249 L22.4347658,48.0013787 C24.5813433,49.0571509 26.8452277,50.120951 29.2277104,51.1882939 L31.1195991,52.0283827 L31.4761579,51.0027001 C35.5505546,39.2822284 40.2343098,27.8614324 45.1294694,17.2007963 L45.9131137,15.5048271 L46.6820101,13.861523 C46.8088701,13.5920975 46.9350703,13.3249187 47.0605881,13.0600126 L47.8053244,11.4980592 L48.5325953,9.99190808 L49.2413137,8.542814 L50.1474632,6.71775284 L51.1277518,4.78284301 L51.467,4.123 L51.9583939,4.20175255 Z"></path>
            </g>
            <g id="病毒">
                <path fill-rule="nonzero" fill="#64BEF8" id="椭圆-510-拷贝-20" d="M52.3073707,130.621413 C56.7214948,130.621413 60.3631472,131.945651 60.3631472,133.600947 C60.3631472,134.997861 58.0837033,136.118479 54.9456829,136.525611 L54.3699953,149.333763 C57.2574237,149.509711 60.0484652,150.052465 62.6969252,150.915829 L64.3798327,145.375582 C62.0987403,143.871242 60.7735701,142.207229 61.2459721,141.104958 C61.9080907,139.560015 65.7704493,139.670368 69.8535141,141.436017 C74.046932,143.201667 76.8057595,145.850141 76.1436409,147.395085 C75.6775696,148.482585 73.6258178,148.695226 71.0275827,148.148476 L68.3167289,153.336766 C70.4012418,154.470435 72.3538156,155.817979 74.1446502,157.349601 L82.9742334,147.223613 C80.9452478,144.678377 80.1309808,142.193861 81.1095306,141.215311 C82.2130616,140.001427 85.7443609,141.656724 88.9446009,144.74661 C92.0344877,147.94685 93.6897843,151.47815 92.4759001,152.692034 C91.5191644,153.561794 89.1228567,152.786328 86.6377081,150.851901 L76.7709352,159.850093 C78.9104843,162.116494 80.7400485,164.678415 82.1905835,167.466813 L87.597709,164.583909 C87.0236074,161.84595 87.2747051,159.712552 88.3928353,159.31322 C89.9377788,158.651101 92.5862532,161.520282 94.2415498,165.603347 C95.8968463,169.796765 96.0071994,173.659123 94.462256,174.210889 C93.3808615,174.674344 91.7588028,173.407673 90.3151194,171.205604 L84.4769829,173.032764 C85.2316961,175.47605 85.7147131,178.036693 85.8904736,180.679133 L98.9156766,179.801254 C99.3064745,176.546767 100.419841,174.210889 101.745561,174.210889 C103.400857,174.210889 104.835448,177.852541 104.835448,182.377018 C104.835448,186.791143 103.400857,190.432795 101.745561,190.432795 C100.420579,190.432795 99.3077142,188.099517 98.9163299,184.90446 L85.9365554,184.321133 C85.8139119,187.310734 85.2982082,190.201827 84.4399482,192.943908 L90.4012067,194.771354 C91.8777411,192.473146 93.5678199,191.168761 94.6829622,191.646679 C96.2279056,192.308798 96.1175525,196.060803 94.3519029,200.254221 C92.5862532,204.337286 89.9377788,207.096114 88.3928353,206.433995 C87.3078637,205.969007 87.0936875,203.925702 87.6738647,201.336048 L82.1576123,198.453972 C80.9861203,200.694342 79.5696809,202.787812 77.944238,204.698438 L87.3784561,212.953263 C89.9138837,210.969774 92.3837681,210.093868 93.358725,211.068825 C94.462256,212.282709 92.9173126,215.814009 89.7170726,218.903896 C86.6271857,222.104135 83.0958864,223.649079 81.8820023,222.545548 C81.0023711,221.577954 81.8055221,219.137925 83.7884468,216.566818 L75.3920971,207.38665 C73.3126001,209.350716 70.9841476,211.053746 68.4601091,212.442372 L71.3001107,217.757848 C73.9917822,217.209618 76.0800522,217.467822 76.4747002,218.572836 C77.1368189,220.11778 74.2676382,222.766254 70.1845734,224.421551 C65.9911555,226.076847 62.1287969,226.1872 61.5770314,224.642257 C61.1135199,223.56073 62.3805572,221.938407 64.5831236,220.494591 L62.8319807,214.897394 C60.2160974,215.76249 57.4598367,216.314431 54.6079557,216.50846 L55.4349009,228.776 C58.6893882,229.194985 61.0252658,230.379136 61.0252658,231.704855 C61.0252658,233.360152 57.3836135,234.684389 52.8591362,234.684389 C48.4450121,234.684389 44.8033597,233.360152 44.8033597,231.704855 C44.8033597,230.379795 47.136917,229.196162 50.3322686,228.776625 L50.8810385,216.556557 C48.1167188,216.440373 45.4368258,215.98813 42.8813152,215.239784 L41.2390286,220.658964 C43.513415,222.147229 44.8335935,223.841063 44.3619473,224.862963 C43.6998287,226.407907 39.8374701,226.297553 35.7544053,224.531904 C31.5609874,222.766254 28.8021598,220.11778 29.4642784,218.572836 C29.9292061,217.488005 31.9720419,217.273744 34.5612196,217.85364 L37.1210082,212.953759 C34.4944849,211.618059 32.0647966,209.947612 29.8887376,207.999213 L21.6262971,217.442778 C23.6695413,220.025144 24.5073423,222.447417 23.615564,223.428373 C22.4016799,224.642257 18.8703806,222.98696 15.6701406,219.897073 C12.5802537,216.696833 10.9249572,213.165534 12.1388413,212.062003 C13.0953204,211.105524 15.4905992,211.861902 17.9750335,213.791279 L27.2369413,205.347417 C25.483588,203.389194 23.9553233,201.225579 22.6935358,198.897961 L18.0143465,201.385322 C18.5830967,204.087943 18.3305198,206.176657 17.215084,206.654701 C15.6701406,207.31682 13.0216661,204.447639 11.3663696,200.364574 C9.71107305,196.171156 9.60071994,192.308798 11.1456634,191.757032 C12.2270579,191.293577 13.8491166,192.560248 15.2928,194.762317 L20.2590179,193.209113 C19.3826663,190.489068 18.8441627,187.619741 18.6933289,184.650952 L5.92564367,185.512665 C5.54022699,188.735354 4.42230964,191.094914 3.08988688,191.094914 C1.43459034,191.094914 0,187.453261 0,183.039137 C0,178.51466 1.43459034,174.983361 3.08988688,174.983361 C4.40493419,174.983361 5.51103411,177.212133 5.91019305,180.397027 L18.7060816,180.971749 C18.8672434,178.183042 19.3705274,175.483574 20.1744179,172.914859 L15.1856707,171.403536 C13.6839376,173.649724 12.0248086,174.934752 10.9249572,174.541948 C9.38001374,173.87983 9.49036684,170.017471 11.2560165,165.824053 C13.0216661,161.740988 15.6701406,158.982161 17.215084,159.644279 C18.3025838,160.110351 18.5152253,162.162102 17.9684749,164.760337 L22.5807289,167.169472 C23.8710769,164.748406 25.4486477,162.501959 27.2674485,160.476125 L17.3741931,151.824064 C14.7962705,153.791106 12.3595704,154.656344 11.4767227,153.685212 C10.2628386,152.471328 11.807782,149.050381 15.008022,145.850141 C18.0979089,142.649901 21.6292081,141.104958 22.8430923,142.318842 C23.8163314,143.203605 22.9452239,145.648969 20.9691279,148.233091 L29.8267217,157.914019 C31.971723,155.983939 34.3647901,154.324609 36.9511621,152.990791 L34.400897,148.190842 C31.6643851,148.764129 29.532405,148.512805 29.1332191,147.395085 C28.4711005,145.850141 31.3402812,143.201667 35.423346,141.54637 C39.6167639,139.891074 43.4791225,139.780721 44.030888,141.325664 C44.4943994,142.407191 43.2273622,144.029514 41.0247958,145.47333 L42.6557325,150.684709 C45.1904647,149.922978 47.849438,149.453076 50.5933248,149.314331 L49.7312696,136.533575 C46.5612098,136.133251 44.2515942,135.007076 44.2515942,133.600947 C44.2515942,131.945651 47.8932466,130.621413 52.3073707,130.621413 Z"></path>
                <path fill-rule="nonzero" stroke-width="2" stroke="#000000" id="椭圆-510-拷贝-20备份" d="M52.3073707,130.621413 C56.7214948,130.621413 60.3631472,131.945651 60.3631472,133.600947 C60.3631472,134.997861 58.0837033,136.118479 54.9456829,136.525611 L54.3699953,149.333763 C57.2574237,149.509711 60.0484652,150.052465 62.6969252,150.915829 L64.3798327,145.375582 C62.0987403,143.871242 60.7735701,142.207229 61.2459721,141.104958 C61.9080907,139.560015 65.7704493,139.670368 69.8535141,141.436017 C74.046932,143.201667 76.8057595,145.850141 76.1436409,147.395085 C75.6775696,148.482585 73.6258178,148.695226 71.0275827,148.148476 L68.3167289,153.336766 C70.4012418,154.470435 72.3538156,155.817979 74.1446502,157.349601 L82.9742334,147.223613 C80.9452478,144.678377 80.1309808,142.193861 81.1095306,141.215311 C82.2130616,140.001427 85.7443609,141.656724 88.9446009,144.74661 C92.0344877,147.94685 93.6897843,151.47815 92.4759001,152.692034 C91.5191644,153.561794 89.1228567,152.786328 86.6377081,150.851901 L76.7709352,159.850093 C78.9104843,162.116494 80.7400485,164.678415 82.1905835,167.466813 L87.597709,164.583909 C87.0236074,161.84595 87.2747051,159.712552 88.3928353,159.31322 C89.9377788,158.651101 92.5862532,161.520282 94.2415498,165.603347 C95.8968463,169.796765 96.0071994,173.659123 94.462256,174.210889 C93.3808615,174.674344 91.7588028,173.407673 90.3151194,171.205604 L84.4769829,173.032764 C85.2316961,175.47605 85.7147131,178.036693 85.8904736,180.679133 L98.9156766,179.801254 C99.3064745,176.546767 100.419841,174.210889 101.745561,174.210889 C103.400857,174.210889 104.835448,177.852541 104.835448,182.377018 C104.835448,186.791143 103.400857,190.432795 101.745561,190.432795 C100.420579,190.432795 99.3077142,188.099517 98.9163299,184.90446 L85.9365554,184.321133 C85.8139119,187.310734 85.2982082,190.201827 84.4399482,192.943908 L90.4012067,194.771354 C91.8777411,192.473146 93.5678199,191.168761 94.6829622,191.646679 C96.2279056,192.308798 96.1175525,196.060803 94.3519029,200.254221 C92.5862532,204.337286 89.9377788,207.096114 88.3928353,206.433995 C87.3078637,205.969007 87.0936875,203.925702 87.6738647,201.336048 L82.1576123,198.453972 C80.9861203,200.694342 79.5696809,202.787812 77.944238,204.698438 L87.3784561,212.953263 C89.9138837,210.969774 92.3837681,210.093868 93.358725,211.068825 C94.462256,212.282709 92.9173126,215.814009 89.7170726,218.903896 C86.6271857,222.104135 83.0958864,223.649079 81.8820023,222.545548 C81.0023711,221.577954 81.8055221,219.137925 83.7884468,216.566818 L75.3920971,207.38665 C73.3126001,209.350716 70.9841476,211.053746 68.4601091,212.442372 L71.3001107,217.757848 C73.9917822,217.209618 76.0800522,217.467822 76.4747002,218.572836 C77.1368189,220.11778 74.2676382,222.766254 70.1845734,224.421551 C65.9911555,226.076847 62.1287969,226.1872 61.5770314,224.642257 C61.1135199,223.56073 62.3805572,221.938407 64.5831236,220.494591 L62.8319807,214.897394 C60.2160974,215.76249 57.4598367,216.314431 54.6079557,216.50846 L55.4349009,228.776 C58.6893882,229.194985 61.0252658,230.379136 61.0252658,231.704855 C61.0252658,233.360152 57.3836135,234.684389 52.8591362,234.684389 C48.4450121,234.684389 44.8033597,233.360152 44.8033597,231.704855 C44.8033597,230.379795 47.136917,229.196162 50.3322686,228.776625 L50.8810385,216.556557 C48.1167188,216.440373 45.4368258,215.98813 42.8813152,215.239784 L41.2390286,220.658964 C43.513415,222.147229 44.8335935,223.841063 44.3619473,224.862963 C43.6998287,226.407907 39.8374701,226.297553 35.7544053,224.531904 C31.5609874,222.766254 28.8021598,220.11778 29.4642784,218.572836 C29.9292061,217.488005 31.9720419,217.273744 34.5612196,217.85364 L37.1210082,212.953759 C34.4944849,211.618059 32.0647966,209.947612 29.8887376,207.999213 L21.6262971,217.442778 C23.6695413,220.025144 24.5073423,222.447417 23.615564,223.428373 C22.4016799,224.642257 18.8703806,222.98696 15.6701406,219.897073 C12.5802537,216.696833 10.9249572,213.165534 12.1388413,212.062003 C13.0953204,211.105524 15.4905992,211.861902 17.9750335,213.791279 L27.2369413,205.347417 C25.483588,203.389194 23.9553233,201.225579 22.6935358,198.897961 L18.0143465,201.385322 C18.5830967,204.087943 18.3305198,206.176657 17.215084,206.654701 C15.6701406,207.31682 13.0216661,204.447639 11.3663696,200.364574 C9.71107305,196.171156 9.60071994,192.308798 11.1456634,191.757032 C12.2270579,191.293577 13.8491166,192.560248 15.2928,194.762317 L20.2590179,193.209113 C19.3826663,190.489068 18.8441627,187.619741 18.6933289,184.650952 L5.92564367,185.512665 C5.54022699,188.735354 4.42230964,191.094914 3.08988688,191.094914 C1.43459034,191.094914 0,187.453261 0,183.039137 C0,178.51466 1.43459034,174.983361 3.08988688,174.983361 C4.40493419,174.983361 5.51103411,177.212133 5.91019305,180.397027 L18.7060816,180.971749 C18.8672434,178.183042 19.3705274,175.483574 20.1744179,172.914859 L15.1856707,171.403536 C13.6839376,173.649724 12.0248086,174.934752 10.9249572,174.541948 C9.38001374,173.87983 9.49036684,170.017471 11.2560165,165.824053 C13.0216661,161.740988 15.6701406,158.982161 17.215084,159.644279 C18.3025838,160.110351 18.5152253,162.162102 17.9684749,164.760337 L22.5807289,167.169472 C23.8710769,164.748406 25.4486477,162.501959 27.2674485,160.476125 L17.3741931,151.824064 C14.7962705,153.791106 12.3595704,154.656344 11.4767227,153.685212 C10.2628386,152.471328 11.807782,149.050381 15.008022,145.850141 C18.0979089,142.649901 21.6292081,141.104958 22.8430923,142.318842 C23.8163314,143.203605 22.9452239,145.648969 20.9691279,148.233091 L29.8267217,157.914019 C31.971723,155.983939 34.3647901,154.324609 36.9511621,152.990791 L34.400897,148.190842 C31.6643851,148.764129 29.532405,148.512805 29.1332191,147.395085 C28.4711005,145.850141 31.3402812,143.201667 35.423346,141.54637 C39.6167639,139.891074 43.4791225,139.780721 44.030888,141.325664 C44.4943994,142.407191 43.2273622,144.029514 41.0247958,145.47333 L42.6557325,150.684709 C45.1904647,149.922978 47.849438,149.453076 50.5933248,149.314331 L49.7312696,136.533575 C46.5612098,136.133251 44.2515942,135.007076 44.2515942,133.600947 C44.2515942,131.945651 47.8932466,130.621413 52.3073707,130.621413 Z"></path>
                <g transform="translate(61.791435, 168.000000)" id="组-5">
                    <path fill-rule="nonzero" fill="#FFFFFF" id="形状-531" d="M4.3100732,17.6876116 C1.22018632,16.8047867 0.999480114,9.96289437 0.999480114,9.96289437 C1.22018632,7.42477301 5.41360423,7.75583232 5.41360423,7.75583232 C10.7105532,7.97653852 17.5524455,2.23817718 17.5524455,2.23817718 C16.6696207,20.0050267 4.3100732,17.6876116 4.3100732,17.6876116 Z"></path>
                    <path fill-rule="nonzero" fill="#000000" id="形状-531备份" d="M18.5512133,2.28780539 L18.6648931,0 L16.8337211,1.53472618 L16.6375969,1.69219093 L16.2672152,1.98074653 C16.1351664,2.08186849 15.9946946,2.18770101 15.8462953,2.29756541 C14.9965083,2.92668783 14.0664561,3.55616318 13.088688,4.14248369 C11.3785829,5.1679514 9.71172931,5.94721809 8.17369343,6.38199394 C7.30695401,6.62700601 6.50052894,6.75616572 5.76573023,6.7618467 L5.33186926,6.74970862 C4.6114752,6.71808688 3.78489712,6.76388233 2.97418553,6.95358653 C1.30476864,7.34422534 0.142861621,8.27061067 0.00323952614,9.87626476 L0,9.99513567 L0.0122278203,10.2448466 L0.0198191814,10.3651072 C0.0385327794,10.6468408 0.0658762399,10.9595248 0.103526607,11.2957601 C0.211404822,12.2591625 0.380984163,13.2240475 0.627930319,14.1339024 C1.27388159,16.5138622 2.32910673,18.1616368 4.03535207,18.6491355 C4.21791701,18.6877586 4.37041062,18.7103287 4.57690585,18.7318327 C6.67973009,18.950817 9.11369606,18.6228849 11.4478766,17.3045052 C15.5708691,14.9757779 18.1613055,10.1347001 18.5512133,2.28780539 Z M16.3754801,4.38017718 L16.3320435,4.75050935 C15.6139218,10.4075607 13.5101043,13.8427602 10.4642935,15.5630793 C8.64979754,16.5879334 6.73484338,16.8892929 5.0743723,16.7682703 L4.69990894,16.7333488 L4.49436173,16.7047394 C3.74904742,16.4873028 3.03743065,15.3760858 2.55810062,13.6100297 C2.34087169,12.8096657 2.18840918,11.9421734 2.09110462,11.0731985 C2.06832888,10.8698006 2.04974427,10.6762952 2.03491162,10.4950145 L2.00148011,10.0041772 L1.9957207,10.049524 C2.04472261,9.48600204 2.50788392,9.11672478 3.42987065,8.90098251 C3.93217846,8.78344391 4.47279127,8.7385405 4.95941003,8.7409002 L5.33490174,8.75273047 C6.41749122,8.79852862 7.53585535,8.6406734 8.717739,8.30657556 C10.4483664,7.81735747 12.2677612,6.9667766 14.1172404,5.85773292 C14.7396259,5.4845183 15.3423901,5.09576771 15.919197,4.70072648 L16.3754801,4.38017718 Z"></path>
                    <ellipse ry="4" rx="3" cy="11" cx="7" transform="translate(7.000000, 11.000000) rotate(-15.000000) translate(-7.000000, -11.000000)" fill="#000000" id="椭圆形"></ellipse>
                </g>
                <g transform="translate(40.123882, 177.397204) scale(-1, 1) translate(-40.123882, -177.397204) translate(30.791435, 168.000000)" id="组-5备份">
                    <path fill-rule="nonzero" fill="#FFFFFF" id="形状-531" d="M4.3100732,17.6876116 C1.22018632,16.8047867 0.999480114,9.96289437 0.999480114,9.96289437 C1.22018632,7.42477301 5.41360423,7.75583232 5.41360423,7.75583232 C10.7105532,7.97653852 17.5524455,2.23817718 17.5524455,2.23817718 C16.6696207,20.0050267 4.3100732,17.6876116 4.3100732,17.6876116 Z"></path>
                    <path fill-rule="nonzero" fill="#000000" id="形状-531备份" d="M18.5512133,2.28780539 L18.6648931,0 L16.8337211,1.53472618 L16.6375969,1.69219093 L16.2672152,1.98074653 C16.1351664,2.08186849 15.9946946,2.18770101 15.8462953,2.29756541 C14.9965083,2.92668783 14.0664561,3.55616318 13.088688,4.14248369 C11.3785829,5.1679514 9.71172931,5.94721809 8.17369343,6.38199394 C7.30695401,6.62700601 6.50052894,6.75616572 5.76573023,6.7618467 L5.33186926,6.74970862 C4.6114752,6.71808688 3.78489712,6.76388233 2.97418553,6.95358653 C1.30476864,7.34422534 0.142861621,8.27061067 0.00323952614,9.87626476 L0,9.99513567 L0.0122278203,10.2448466 L0.0198191814,10.3651072 C0.0385327794,10.6468408 0.0658762399,10.9595248 0.103526607,11.2957601 C0.211404822,12.2591625 0.380984163,13.2240475 0.627930319,14.1339024 C1.27388159,16.5138622 2.32910673,18.1616368 4.03535207,18.6491355 C4.21791701,18.6877586 4.37041062,18.7103287 4.57690585,18.7318327 C6.67973009,18.950817 9.11369606,18.6228849 11.4478766,17.3045052 C15.5708691,14.9757779 18.1613055,10.1347001 18.5512133,2.28780539 Z M16.3754801,4.38017718 L16.3320435,4.75050935 C15.6139218,10.4075607 13.5101043,13.8427602 10.4642935,15.5630793 C8.64979754,16.5879334 6.73484338,16.8892929 5.0743723,16.7682703 L4.69990894,16.7333488 L4.49436173,16.7047394 C3.74904742,16.4873028 3.03743065,15.3760858 2.55810062,13.6100297 C2.34087169,12.8096657 2.18840918,11.9421734 2.09110462,11.0731985 C2.06832888,10.8698006 2.04974427,10.6762952 2.03491162,10.4950145 L2.00148011,10.0041772 L1.9957207,10.049524 C2.04472261,9.48600204 2.50788392,9.11672478 3.42987065,8.90098251 C3.93217846,8.78344391 4.47279127,8.7385405 4.95941003,8.7409002 L5.33490174,8.75273047 C6.41749122,8.79852862 7.53585535,8.6406734 8.717739,8.30657556 C10.4483664,7.81735747 12.2677612,6.9667766 14.1172404,5.85773292 C14.7396259,5.4845183 15.3423901,5.09576771 15.919197,4.70072648 L16.3754801,4.38017718 Z"></path>
                    <ellipse ry="4" rx="3" cy="11" cx="7" transform="translate(7.000000, 11.000000) rotate(-15.000000) translate(-7.000000, -11.000000)" fill="#000000" id="椭圆形"></ellipse>
                </g>
                <path fill-rule="nonzero" fill="#000000" id="路径-2" d="M41.3857276,188.96749 L42.0590551,189.807231 C47.6598872,196.792309 57.2720712,199.561069 71.0135519,198.035658 C71.562465,197.974725 72.0568433,198.37031 72.1177769,198.919223 C72.1787105,199.468136 71.783125,199.962515 71.2342119,200.023448 C57.4898737,201.549176 47.4789855,198.900631 41.3049685,192.009551 L41.1904354,191.88 L37.1045208,195.682571 C36.7312847,196.029835 36.1634229,196.037112 35.7823746,195.718153 L35.6912252,195.631625 C35.3439614,195.258389 35.3366839,194.690527 35.6556428,194.309479 L35.7421712,194.218329 L41.3857276,188.96749 Z"></path>
                <path fill-rule="nonzero" fill="#000000" id="完胜" d="M29.7914354,30.16 L29.7914354,18.72 L81.3114354,18.72 L81.3114354,30.16 L88.9914354,30.16 L88.9914354,11.6 L61.2314354,11.6 C60.1114354,8.64 58.2714354,4.96 56.5114354,2.08 L48.9914354,4.32 C50.1914354,6.48 51.4714354,9.2 52.3514354,11.6 L22.3514354,11.6 L22.3514354,30.16 L29.7914354,30.16 Z M76.6714354,32.88 L76.6714354,26.08 L34.5114354,26.08 L34.5114354,32.88 L76.6714354,32.88 Z M23.3914354,76.4 C43.6314354,72.24 47.6314354,63.68 48.7514354,47.68 L61.3114354,47.68 L61.3114354,65.6 C61.3114354,72.96 63.2314354,75.12 71.3914354,75.12 L82.6714354,75.12 C89.4714354,75.12 91.4714354,72.32 92.2714354,61.12 C90.3514354,60.64 87.2314354,59.44 85.5514354,58.16 C85.2363585,66.8246154 84.7661667,68.2763929 82.1553909,68.3190122 L72.3514354,68.32 C69.3114354,68.32 68.8314354,68 68.8314354,65.6 L68.8314354,47.68 L90.9914354,47.68 L90.9914354,40.72 L20.5114354,40.72 L20.5114354,47.68 L41.1514354,47.68 C40.2714354,60.72 37.3114354,66.88 19.4714354,70.08 C20.8314354,71.6 22.7514354,74.48 23.3914354,76.4 Z M104.191435,76.32 C107.311435,69.04 108.751435,59.12 109.391435,49.76 L119.311435,49.76 L119.311435,67.36 C119.311435,68.4 118.911435,68.8 118.031435,68.8 L117.217762,68.7992128 C115.940415,68.7963265 113.700007,68.7828571 111.311435,68.72 C112.191435,70.56 113.071435,73.92 113.311435,75.84 C118.191435,75.84 121.231435,75.6 123.391435,74.4 C125.471435,73.2 126.111435,71.04 126.111435,67.52 L126.111435,35.36 C127.871435,36.24 130.751435,37.92 132.031435,38.96 C133.871435,35.68 135.631435,31.68 137.071435,27.2 L146.911435,27.2 L146.911435,43.12 L131.791435,43.12 L131.791435,50 L146.911435,50 L146.911435,67.12 L128.431435,67.12 L128.431435,74.16 L172.431435,74.16 L172.431435,67.12 L154.191435,67.12 L154.191435,50 L169.391435,50 L169.391435,43.12 L154.191435,43.12 L154.191435,27.2 L170.671435,27.2 L170.671435,20.16 L154.191435,20.16 L154.191435,3.76 L146.911435,3.76 L146.911435,20.16 L139.231435,20.16 C140.191435,16.32 140.991435,12.32 141.711435,8.24 L134.671435,7.04 C133.071435,17.44 130.351435,27.84 126.111435,34.72 L126.111435,5.76 L103.231435,5.76 L103.231435,34.32 C103.231435,45.92 102.831435,61.92 98.1114354,72.96 C99.7914354,73.52 102.831435,75.28 104.191435,76.32 Z M119.311435,24.08 L109.871435,24.08 L109.871435,12.56 L119.311435,12.56 L119.311435,24.08 Z M119.311435,42.88 L109.711435,42.88 C109.871435,39.84 109.871435,36.88 109.871435,34.24 L109.871435,30.88 L119.311435,30.88 L119.311435,42.88 Z"></path>
            </g>
        </g>
    </g>
</svg>