<?xml version="1.0" standalone="no"?><!DOCTYPE svg PUBLIC "-//W3C//DTD SVG 1.1//EN" "http://www.w3.org/Graphics/SVG/1.1/DTD/svg11.dtd"><svg class="icon" width="200px" height="200.00px" viewBox="0 0 1024 1024" version="1.1" xmlns="http://www.w3.org/2000/svg"><path fill="#333333" d="M207.413422 645.040039l72.482825 0 0 194.035228 29.112038 0L309.008284 645.040039l72.782653 0 0-25.961278L207.413422 619.078761 207.413422 645.040039zM563.069631 629.734448c-16.314571-9.708106-34.622542-14.556531-54.924937-14.556531-31.018457 0-56.319703 10.324136-75.933413 30.988782-19.61371 20.662599-29.41289 49.250704-29.41289 85.762269 0 19.313881 4.201695 37.621852 12.605086 54.92289 8.404414 17.304108 20.753673 30.960129 37.06722 40.969087 16.311501 10.008958 34.8139 15.006785 55.524594 15.006785 19.105127 0 36.914748-4.533246 53.423747-13.58132 16.506952-9.049097 29.262464-22.390963 38.266535-39.99183 9.006118-17.603937 13.506619-37.562501 13.506619-59.877739 0-22.014386-4.27742-41.686425-12.831236-59.049884C591.806115 652.964522 579.381132 639.443577 563.069631 629.734448zM561.942971 794.806018c-14.150278 15.410991-32.188096 23.109324-54.097082 23.109324-21.505803 0-39.392172-7.622608-53.648874-22.883173-14.255679-15.262612-21.38403-36.137035-21.38403-62.652945 0-33.120328 7.42818-56.756655 22.284539-70.906933 14.856359-14.151301 32.594349-21.234627 53.197596-21.234627 14.498202 0 27.583219 3.676739 39.243793 11.030218 11.658528 7.354502 20.512173 17.70729 26.559912 31.06246s9.077749 28.993335 9.077749 46.895053C583.176574 757.545392 576.093249 779.395026 561.942971 794.806018zM811.951001 652.693346c-4.455475-9.108448-10.323113-16.176424-17.630542-21.233604-7.309476-5.057179-16.358573-8.478092-27.161616-10.280134-7.714705-1.394766-18.865673-2.101871-33.465183-2.101871l-82.988086 0 0 219.996506 29.112038 0L679.817612 749.636259l56.428174 0c31.106462 0 52.626591-6.482645 64.528666-19.431561 11.897981-12.951987 17.85567-28.78458 17.85567-47.495734C818.630121 671.798473 816.4075 661.802818 811.951001 652.693346zM776.760524 713.170742c-7.907087 7.007601-21.263279 10.504238-40.064484 10.504238l-56.877405 0 0-78.634942 56.275701 0c13.20679 0 22.254863 0.64673 27.161616 1.951445 7.609305 2.101871 13.732769 6.42227 18.383696 12.981662 4.650927 6.556323 6.978948 14.436804 6.978948 23.63428C788.618597 696.317912 784.671705 706.162118 776.760524 713.170742zM665.488255 365.782847 500.446361 184.241164 335.404468 365.782847 358.154611 386.461819 485.079372 246.840898 485.079372 550.363749 515.813351 550.363749 515.813351 246.840898 642.738112 386.461819Z" /></svg>