<?xml version="1.0" standalone="no"?><!DOCTYPE svg PUBLIC "-//W3C//DTD SVG 1.1//EN" "http://www.w3.org/Graphics/SVG/1.1/DTD/svg11.dtd"><svg t="1651159106508" class="icon" viewBox="0 0 1024 1024" version="1.1" xmlns="http://www.w3.org/2000/svg" p-id="1398" xmlns:xlink="http://www.w3.org/1999/xlink" width="200" height="200"><defs><style type="text/css">@font-face { font-family: feedback-iconfont; src: url("//at.alicdn.com/t/font_1031158_u69w8yhxdu.woff2?t=1630033759944") format("woff2"), url("//at.alicdn.com/t/font_1031158_u69w8yhxdu.woff?t=1630033759944") format("woff"), url("//at.alicdn.com/t/font_1031158_u69w8yhxdu.ttf?t=1630033759944") format("truetype"); }
</style></defs><path d="M112.64 346.5216a20.48 20.48 0 0 1-20.48-20.48V225.28A112.64 112.64 0 0 1 204.8 112.64h100.9664a20.48 20.48 0 1 1 0 40.96H204.8A71.4752 71.4752 0 0 0 133.12 225.28v100.9664a20.48 20.48 0 0 1-20.48 20.2752zM305.5616 972.8H204.8A112.64 112.64 0 0 1 92.16 860.16v-104.0384a20.48 20.48 0 0 1 40.96 0V860.16a71.4752 71.4752 0 0 0 71.68 71.68h100.9664a20.48 20.48 0 1 1 0 40.96zM839.68 972.8h-105.8816a20.48 20.48 0 0 1 0-40.96H839.68a71.4752 71.4752 0 0 0 71.68-71.68v-104.0384a20.48 20.48 0 0 1 40.96 0V860.16a112.64 112.64 0 0 1-112.64 112.64zM931.84 346.5216a20.48 20.48 0 0 1-20.48-20.48V225.28A71.4752 71.4752 0 0 0 839.68 153.6h-104.0384a20.48 20.48 0 0 1 0-40.96H839.68a112.64 112.64 0 0 1 112.64 112.64v100.9664a20.48 20.48 0 0 1-20.48 20.2752zM911.36 563.2h-778.24a20.48 20.48 0 0 1 0-40.96h778.24a20.48 20.48 0 0 1 0 40.96z" fill="#0090FF" p-id="1399"></path><path d="M286.72 307.2m80.0768 0l310.8864 0q80.0768 0 80.0768 80.0768l0 310.8864q0 80.0768-80.0768 80.0768l-310.8864 0q-80.0768 0-80.0768-80.0768l0-310.8864q0-80.0768 80.0768-80.0768Z" fill="#0090FF" p-id="1400"></path></svg>