<?xml version="1.0" standalone="no"?><!DOCTYPE svg PUBLIC "-//W3C//DTD SVG 1.1//EN" "http://www.w3.org/Graphics/SVG/1.1/DTD/svg11.dtd"><svg t="1651159153048" class="icon" viewBox="0 0 1024 1024" version="1.1" xmlns="http://www.w3.org/2000/svg" p-id="2270" xmlns:xlink="http://www.w3.org/1999/xlink" width="200" height="200"><defs><style type="text/css">@font-face { font-family: feedback-iconfont; src: url("//at.alicdn.com/t/font_1031158_u69w8yhxdu.woff2?t=1630033759944") format("woff2"), url("//at.alicdn.com/t/font_1031158_u69w8yhxdu.woff?t=1630033759944") format("woff"), url("//at.alicdn.com/t/font_1031158_u69w8yhxdu.ttf?t=1630033759944") format("truetype"); }
</style></defs><path d="M141.96736 0h740.08576c66.33472 0 120.58624 54.272 120.58624 120.58624v794.60352c0 5.95968-0.3072 12.30848-0.94208 19.02592-2.2528 23.22432-9.05216 44.25728-22.58944 60.14976-14.45888 16.95744-35.30752 27.25888-64.53248 27.25888-3.584 0-7.86432-0.24576-12.8-0.7168-27.48416-2.6624-45.19936-10.52672-61.35808-17.69472-11.38688-5.05856-21.77024-9.66656-33.44384-10.15808-15.07328-0.63488-29.14304 6.28736-42.63936 12.94336-17.5104 8.64256-34.36544 16.93696-56.09472 16.09728-24.41216-0.94208-40.42752-9.54368-56.27904-18.08384-11.40736-6.144-22.7328-12.22656-36.90496-12.22656-15.50336 0-28.79488 6.92224-41.94304 13.74208-17.87904 9.29792-35.59424 18.49344-61.0304 18.37056h-0.18432 0.18432-0.18432c-25.43616 0.12288-43.15136-9.07264-61.0304-18.37056-13.14816-6.81984-26.43968-13.74208-41.94304-13.74208-14.17216 0-25.4976 6.08256-36.90496 12.22656-15.85152 8.54016-31.86688 17.14176-56.27904 18.08384-21.72928 0.83968-38.58432-7.4752-56.09472-16.09728-13.47584-6.656-27.56608-13.57824-42.63936-12.94336-11.65312 0.49152-22.05696 5.12-33.44384 10.15808-16.15872 7.168-33.87392 15.0528-61.35808 17.69472-4.93568 0.47104-9.216 0.7168-12.8 0.7168-29.24544 0-50.09408-10.30144-64.53248-27.25888-13.53728-15.89248-20.33664-36.92544-22.58944-60.14976a195.93216 195.93216 0 0 1-0.94208-19.02592V120.58624C21.36064 54.272 75.63264 0 141.96736 0z m98.32448 283.79136h543.41632c32.41984 0 32.4608 45.48608 0 45.48608H240.29184c-32.39936 0-32.48128-45.48608 0-45.48608z m0 205.43488h543.41632c32.41984 0 32.4608 45.48608 0 45.48608H240.29184c-32.39936-0.02048-32.48128-45.48608 0-45.48608z m0 205.39392h543.41632c32.41984 0 32.4608 45.48608 0 45.48608H240.29184c-32.39936 0-32.48128-45.48608 0-45.48608zM141.96736 45.48608a75.3664 75.3664 0 0 0-75.12064 75.12064v794.60352c0 5.57056 0.18432 10.5472 0.59392 14.76608 1.39264 14.45888 5.0176 26.8288 11.91936 34.9184 5.98016 7.00416 15.58528 11.264 30.08512 11.264 3.19488 0 6.06208-0.12288 8.54016-0.34816 19.80416-1.90464 34.2016-8.31488 47.32928-14.15168 15.5648-6.92224 29.77792-13.23008 49.95072-14.06976 26.23488-1.10592 45.75232 8.51968 64.49152 17.73568 12.10368 5.95968 23.7568 11.71456 34.4064 11.30496 14.00832-0.53248 25.25184-6.59456 36.39296-12.57472 16.54784-8.9088 32.95232-17.73568 58.40896-17.73568 26.56256 0 44.83072 9.50272 62.89408 18.88256 12.88192 6.69696 25.64096 13.312 40.05888 13.23008h0.18432c14.4384 0.08192 27.17696-6.53312 40.05888-13.23008 18.06336-9.37984 36.33152-18.88256 62.89408-18.88256 25.43616 0 41.86112 8.82688 58.40896 17.73568 11.14112 6.00064 22.36416 12.04224 36.39296 12.57472 10.62912 0.4096 22.30272-5.34528 34.4064-11.30496 18.71872-9.23648 38.25664-18.86208 64.49152-17.73568 20.1728 0.86016 34.38592 7.168 49.95072 14.06976 13.12768 5.8368 27.52512 12.22656 47.32928 14.15168 2.49856 0.24576 5.34528 0.34816 8.54016 0.34816 14.47936 0 24.10496-4.25984 30.08512-11.264 6.88128-8.0896 10.52672-20.45952 11.91936-34.9184 0.4096-4.21888 0.59392-9.19552 0.59392-14.76608v-794.624a75.3664 75.3664 0 0 0-75.12064-75.12064H141.96736v0.02048z" fill="#1296db" p-id="2271"></path></svg>